<svg id="Calque_1" data-name="Calque 1" data-sanitized-data-name="Calque 1" xmlns="http://www.w3.org/2000/svg" viewBox="0 0 655.39 119.1">
  <defs>
    <style>
      .cls-1 {
        stroke-width: 0px;
      }
    </style>
  </defs>
  <g>
    <path class="cls-1" d="m30.24,25.85c-1.71.55-3.22,1.28-4.53,2.21-1.31.92-2.43,1.98-3.37,3.18-.94,1.2-1.7,2.45-2.28,3.76-.58,1.31-1.01,2.64-1.28,3.98-.28,1.34-.41,2.59-.41,3.76v34.14c0,2.17.27,4.11.82,5.84.55,1.73,1.28,3.25,2.21,4.56.92,1.31,1.98,2.42,3.18,3.35,1.2.92,2.45,1.67,3.76,2.25s2.63,1.01,3.98,1.28c1.34.27,2.59.41,3.76.41h45.48v-12.61h-45.48c-1.62,0-2.87-.44-3.76-1.33-.89-.89-1.33-2.14-1.33-3.76v-34.04c0-1.71.44-3.01,1.31-3.88.87-.87,2.13-1.31,3.78-1.31h45.48v-12.61h-45.48c-2.17,0-4.11.27-5.82.82Z"></path>
    <path class="cls-1" d="m157.18,32.27c-2.59-2.57-5.65-4.58-9.19-6.04-3.54-1.45-7.39-2.18-11.56-2.18h-17.07c-4.17,0-8.03.73-11.59,2.18-3.56,1.45-6.63,3.47-9.21,6.04-2.59,2.57-4.62,5.64-6.09,9.21-1.47,3.57-2.21,7.46-2.21,11.66v13.29c0,4.24.73,8.13,2.21,11.69,1.47,3.56,3.5,6.63,6.09,9.21,2.58,2.59,5.66,4.6,9.21,6.04,3.55,1.44,7.42,2.16,11.59,2.16h17.07c4.17,0,8.03-.72,11.56-2.16,3.54-1.44,6.6-3.45,9.19-6.04,2.58-2.59,4.61-5.66,6.06-9.21,1.45-3.56,2.18-7.45,2.18-11.69v-13.29c0-4.2-.73-8.09-2.18-11.66-1.45-3.57-3.48-6.64-6.06-9.21Zm-4.36,34.16c0,2.49-.4,4.74-1.19,6.76-.79,2.02-1.92,3.75-3.37,5.19-1.45,1.44-3.19,2.55-5.21,3.35-2.02.79-4.26,1.19-6.72,1.19h-16.97c-2.46,0-4.7-.4-6.72-1.19-2.02-.79-3.76-1.91-5.21-3.35-1.45-1.44-2.58-3.17-3.37-5.19-.79-2.02-1.19-4.27-1.19-6.76v-13.29c0-2.49.4-4.74,1.19-6.76.79-2.02,1.92-3.75,3.37-5.19,1.45-1.44,3.19-2.55,5.21-3.35,2.02-.79,4.26-1.19,6.72-1.19h17.07c2.42,0,4.65.4,6.67,1.19,2.02.79,3.75,1.91,5.19,3.35,1.44,1.44,2.55,3.17,3.35,5.19.79,2.02,1.19,4.27,1.19,6.76v13.29Z"></path>
    <path class="cls-1" d="m244.27,26.86c-.58-.58-1.26-1.04-2.04-1.36-.78-.32-1.6-.48-2.47-.48h-28.41c-5.01,0-9.63.86-13.87,2.57-4.24,1.71-7.9,4.1-11.01,7.18-3.1,3.07-5.53,6.74-7.27,11.01s-2.62,8.94-2.62,14.01v34.77h12.61v-17.07h44.32v17.07h12.61V31.37c0-.87-.16-1.7-.48-2.47-.32-.78-.78-1.45-1.36-2.04Zm-10.76,38.02h-44.32v-5.09c0-3.52.49-6.52,1.48-8.99.98-2.47,2.24-4.53,3.76-6.18,1.52-1.65,3.18-2.94,4.99-3.88,1.81-.94,3.53-1.63,5.16-2.09,1.63-.45,3.07-.73,4.32-.85,1.24-.11,2.06-.17,2.45-.17h22.16v27.25Z"></path>
    <path class="cls-1" d="m273.36,25.02h-12.61v63.18c0,.9.16,1.75.48,2.52.32.78.77,1.45,1.33,2.01.56.56,1.24,1.01,2.01,1.33.78.32,1.61.48,2.52.48h57.51v-12.61h-51.25V25.02Z"></path>
    <rect class="cls-1" x="333.97" y="25.02" width="12.61" height="69.53"></rect>
    <polygon class="cls-1" points="355.94 37.63 383.77 37.63 383.77 94.56 396.38 94.56 396.38 37.63 424.16 37.63 424.16 25.02 355.94 25.02 355.94 37.63"></polygon>
    <rect class="cls-1" x="433.52" y="25.02" width="12.61" height="69.53"></rect>
    <path class="cls-1" d="m525.6,32.27c-2.59-2.57-5.65-4.58-9.19-6.04-3.54-1.45-7.39-2.18-11.56-2.18h-17.07c-4.17,0-8.03.73-11.59,2.18-3.56,1.45-6.63,3.47-9.21,6.04s-4.61,5.64-6.09,9.21-2.21,7.46-2.21,11.66v13.29c0,4.24.73,8.13,2.21,11.69s3.5,6.63,6.09,9.21c2.59,2.59,5.66,4.6,9.21,6.04,3.56,1.44,7.42,2.16,11.59,2.16h17.07c4.17,0,8.02-.72,11.56-2.16,3.54-1.44,6.6-3.45,9.19-6.04,2.59-2.59,4.61-5.66,6.06-9.21,1.45-3.56,2.18-7.45,2.18-11.69v-13.29c0-4.2-.73-8.09-2.18-11.66-1.45-3.57-3.47-6.64-6.06-9.21Zm-4.36,34.16c0,2.49-.4,4.74-1.19,6.76-.79,2.02-1.92,3.75-3.37,5.19-1.45,1.44-3.19,2.55-5.21,3.35-2.02.79-4.26,1.19-6.72,1.19h-16.97c-2.46,0-4.7-.4-6.72-1.19-2.02-.79-3.76-1.91-5.21-3.35-1.45-1.44-2.58-3.17-3.37-5.19-.79-2.02-1.19-4.27-1.19-6.76v-13.29c0-2.49.4-4.74,1.19-6.76.79-2.02,1.92-3.75,3.37-5.19,1.45-1.44,3.19-2.55,5.21-3.35,2.02-.79,4.26-1.19,6.72-1.19h17.07c2.42,0,4.65.4,6.67,1.19s3.75,1.91,5.19,3.35c1.44,1.44,2.55,3.17,3.35,5.19.79,2.02,1.19,4.27,1.19,6.76v13.29Z"></path>
    <path class="cls-1" d="m603.19,25.02v48.97l-46.06-48.05c-.9-.94-1.99-1.53-3.25-1.77-1.26-.24-2.49-.12-3.69.36-1.13.52-2.06,1.3-2.79,2.35-.73,1.05-1.09,2.22-1.09,3.52v64.15h12.61v-48.97l46.07,48.1c.61.65,1.32,1.12,2.11,1.41s1.58.44,2.35.44c.87,0,1.7-.16,2.47-.48.78-.32,1.45-.77,2.01-1.33s1.02-1.24,1.36-2.01.51-1.62.51-2.52V25.02h-12.61Z"></path>
  </g>
  <path class="cls-1" d="m646.87,25.21c0,5.9-4.62,10.52-10.65,10.52s-10.71-4.62-10.71-10.52,4.75-10.39,10.71-10.39,10.65,4.63,10.65,10.39Zm-18.7,0c0,4.63,3.43,8.3,8.11,8.3s7.93-3.67,7.93-8.24-3.36-8.37-7.99-8.37-8.05,3.74-8.05,8.3Zm6.4,5.45h-2.41v-10.39c.95-.19,2.28-.32,3.99-.32,1.96,0,2.85.32,3.61.76.57.44,1.01,1.26,1.01,2.28,0,1.14-.89,2.03-2.15,2.4v.13c1.01.38,1.58,1.14,1.9,2.53.32,1.58.51,2.22.76,2.6h-2.6c-.31-.38-.51-1.33-.83-2.54-.19-1.14-.82-1.65-2.15-1.65h-1.14v4.19Zm.06-5.89h1.14c1.33,0,2.41-.44,2.41-1.52,0-.95-.7-1.58-2.22-1.58-.63,0-1.08.06-1.33.12v2.98Z"></path>
</svg>