<svg version="1.0" preserveAspectRatio="xMidYMid meet" height="100" viewBox="0 0 224.87999 74.999997" zoomAndPan="magnify" width="300" xmlns:xlink="http://www.w3.org/1999/xlink" xmlns="http://www.w3.org/2000/svg"><path stroke-miterlimit="4" stroke-opacity="1" stroke-width="0.094" stroke="#3642b8" d="M 260.8475 59.771579 C 287.027171 54.6013 315.052844 52.70891 340.393423 62.474993 C 352.778421 67.746651 364.861346 75.079661 372.64812 86.332621 C 384.395408 102.046215 386.207847 122.997673 383.858389 141.853985 C 377.884054 177.67422 357.980792 209.473126 334.117015 236.135546 C 322.134781 248.503665 310.320365 261.311089 296.22362 271.415098 C 296.156492 252.693957 295.283836 233.90523 296.391438 215.217881 C 302.667846 206.060066 311.293712 198.794641 317.670811 189.704412 C 331.70043 170.746722 344.320374 149.322166 346.468449 125.329367 C 347.911688 115.191565 345.327284 104.682043 339.889968 96.064912 C 331.968939 84.406439 318.174267 78.289965 304.547412 76.566538 C 278.703378 72.342454 252.825781 79.607879 228.861313 88.833279 C 187.745804 105.662031 150.490119 131.716183 120.383497 164.359906 C 103.366711 182.912084 88.76651 204.505603 81.953083 228.971499 C 79.771444 238.365863 78.294642 248.267116 80.174208 257.864236 C 81.953083 266.346197 88.464437 274.456439 97.42594 275.436427 C 112.462469 278.51156 126.42496 270.435111 138.172248 262.155906 C 161.297624 244.076825 180.22754 221.368148 198.654 198.693263 C 221.17523 170.104661 242.655985 140.671242 261.854411 109.784737 C 262.089356 171.760502 262.089356 233.736267 261.854411 295.745824 C 224.162397 317.136587 182.039978 334.066716 138.00443 333.086729 C 113.637197 333.255692 87.726036 325.584755 71.279833 306.728443 C 60.036 294.664458 56.008358 277.734328 55.504903 261.682808 C 55.102139 237.82518 64.130769 214.981332 75.441729 194.401594 C 96.184084 159.122042 125.720122 129.553452 159.082421 106.101336 C 189.692498 84.507817 224.128834 67.814236 260.8475 59.771579 Z M 260.8475 59.771579" stroke-linejoin="miter" fill-rule="nonzero" fill="#3642b8" fill-opacity="1" transform="matrix(0.116383, 0, 0, 0.115595, -1.494997, 14.860261)" stroke-linecap="butt"></path><path stroke-miterlimit="4" stroke-opacity="1" stroke-width="0.094" stroke="#3642b8" d="M 775.244468 125.227989 C 795.114167 99.748313 829.785449 89.880852 860.966108 94.037351 C 877.647257 96.30146 894.093461 102.789654 906.277077 114.684675 C 921.414297 129.384488 929.268198 150.234568 931.315583 170.949478 C 914.902943 171.050856 898.456739 171.050856 882.044099 170.98327 C 879.056932 160.811675 875.801255 149.829056 866.671934 143.374656 C 851.098386 133.946499 828.778538 136.886462 816.729177 150.741459 C 809.982877 157.973091 806.794328 167.806759 805.552472 177.437671 C 804.579125 191.394046 803.572214 206.026274 808.606767 219.37438 C 812.533717 229.647353 818.843689 239.920326 829.013484 245.02302 C 845.39256 253.572566 866.235606 252.761542 881.943408 242.961667 C 895.939463 234.175571 906.545586 220.996428 914.97007 206.972469 C 937.994755 170.307417 960.818058 133.540987 984.010561 97.011106 C 1007.337319 96.977314 1030.664077 96.977314 1053.990835 97.044899 C 1054.024399 161.994419 1054.024399 226.977732 1053.990835 291.994837 C 1037.645322 292.02863 1021.366937 292.02863 1005.054989 291.994837 C 1004.987861 280.099816 1005.021425 268.204794 1004.685788 256.309773 C 982.500195 256.039432 960.314602 255.397371 938.162573 256.309773 C 929.637398 262.629003 923.226736 271.448891 914.298796 277.328816 C 899.497213 287.567997 881.909845 293.650678 863.953276 294.901007 C 837.370841 297.84097 808.942403 292.265178 787.629466 275.436427 C 773.197084 264.352429 763.732126 247.895397 758.3955 230.728719 C 748.863415 195.516752 751.984837 154.593823 775.244468 125.227989 M 960.885185 216.9751 C 975.586077 217.042685 990.253406 217.008893 1004.987861 216.9751 C 1004.920734 193.522984 1005.323498 170.037076 1004.652224 146.58496 C 989.582132 169.699149 975.51895 193.522984 960.885185 216.9751 Z M 960.885185 216.9751" stroke-linejoin="miter" fill-rule="nonzero" fill="#3642b8" fill-opacity="1" transform="matrix(0.116383, 0, 0, 0.115595, -1.494997, 14.860261)" stroke-linecap="butt"></path><path stroke-miterlimit="4" stroke-opacity="1" stroke-width="0.094" stroke="#3642b8" d="M 1621.418418 93.429083 C 1650.249619 91.435315 1680.725441 100.762093 1700.796522 122.186649 C 1721.371059 144.18568 1728.218049 175.646659 1726.002846 204.978701 C 1724.223971 234.479705 1709.959407 264.420015 1684.316755 280.336364 C 1654.143006 299.125091 1614.269354 300.476798 1582.115348 285.878363 C 1565.064998 277.666743 1550.632616 263.879332 1542.00675 247.016788 C 1531.803391 228.532195 1529.521061 206.769712 1530.091643 185.987218 C 1531.467754 160.74409 1541.436167 135.534755 1559.929755 117.928772 C 1576.644468 102.654483 1598.964316 94.578034 1621.418418 93.429083 M 1621.451982 138.50851 C 1608.026509 139.556083 1595.742202 147.497362 1589.163721 159.155834 C 1580.202218 175.105977 1579.564508 194.502972 1582.853749 212.108955 C 1584.968261 224.071562 1590.774778 235.966583 1601.078827 242.894081 C 1614.705682 252.86292 1633.467779 252.761542 1648.70569 246.746446 C 1664.48062 240.055497 1673.039359 222.990196 1674.549724 206.600749 C 1676.194345 187.710644 1674.986052 166.184711 1661.728398 151.248349 C 1651.62573 140.333315 1635.817237 136.379572 1621.451982 138.50851 Z M 1621.451982 138.50851" stroke-linejoin="miter" fill-rule="nonzero" fill="#3642b8" fill-opacity="1" transform="matrix(0.116383, 0, 0, 0.115595, -1.494997, 14.860261)" stroke-linecap="butt"></path><path stroke-miterlimit="4" stroke-opacity="1" stroke-width="0.094" stroke="#3642b8" d="M 440.010427 97.011106 C 465.015369 97.044899 490.020311 96.875936 515.025253 97.011106 C 543.386563 97.18007 572.788347 108.703372 589.972952 131.986524 C 601.585985 147.767703 607.358938 167.164698 608.500103 186.561693 C 609.809087 207.344188 606.2849 228.836329 596.24936 247.253336 C 587.287857 262.797966 573.593875 275.875731 556.979854 282.972193 C 541.17136 290.575545 523.281918 291.893459 505.996623 292.02863 C 484.012412 292.096215 461.994638 291.961044 440.010427 291.994837 C 439.976863 227.011524 439.976863 161.994419 440.010427 97.011106 M 490.221693 139.285742 C 489.684674 175.849416 490.154566 212.446882 490.020311 249.010555 C 500.290797 249.044348 510.594847 249.416067 520.865333 248.605043 C 532.981822 247.320922 544.393473 239.886533 549.864353 228.937707 C 557.818946 215.522015 558.658038 199.166361 557.114108 184.027243 C 555.771561 170.611551 551.072646 156.520006 540.030195 147.970459 C 526.067704 136.886462 506.835715 138.914023 490.221693 139.285742 Z M 490.221693 139.285742" stroke-linejoin="miter" fill-rule="nonzero" fill="#3642b8" fill-opacity="1" transform="matrix(0.116383, 0, 0, 0.115595, -1.494997, 14.860261)" stroke-linecap="butt"></path><path stroke-miterlimit="4" stroke-opacity="1" stroke-width="0.094" stroke="#3642b8" d="M 620.012446 97.011106 C 663.91374 97.146277 707.815034 96.67318 751.682764 97.281448 C 752.119092 111.170237 752.051965 125.092819 751.984837 138.981608 C 724.664001 139.049193 697.343166 138.947815 669.988766 139.015401 C 669.988766 151.0118 669.988766 162.974407 670.02233 175.004599 C 693.986797 175.038391 717.984829 174.970806 742.016424 175.004599 C 742.016424 188.014778 742.016424 200.991165 741.982861 214.001345 C 717.984829 214.035137 693.986797 213.967552 669.988766 214.001345 C 669.988766 225.659817 669.988766 237.31829 669.988766 248.976763 C 697.242475 249.179519 724.462619 248.672629 751.682764 249.280897 C 752.152656 263.406235 752.119092 277.531572 751.716328 291.690703 C 707.815034 292.400349 663.91374 291.825874 620.012446 291.994837 C 619.978882 226.977732 619.978882 161.994419 620.012446 97.011106 Z M 620.012446 97.011106" stroke-linejoin="miter" fill-rule="nonzero" fill="#3642b8" fill-opacity="1" transform="matrix(0.116383, 0, 0, 0.115595, -1.494997, 14.860261)" stroke-linecap="butt"></path><path stroke-miterlimit="4" stroke-opacity="1" stroke-width="0.094" stroke="#3642b8" d="M 1067.013543 97.011106 C 1116.352153 96.977314 1165.6572 96.977314 1214.99581 97.011106 C 1214.99581 111.001274 1215.029374 124.991441 1214.99581 138.981608 C 1198.650298 139.015401 1182.338349 138.981608 1166.0264 139.015401 C 1165.959273 190.008546 1166.0264 241.001692 1165.992837 291.994837 C 1149.311688 292.02863 1132.664102 292.02863 1116.016516 291.994837 C 1115.949389 241.001692 1116.05008 190.008546 1115.982953 139.015401 C 1099.63744 138.981608 1083.325492 139.015401 1067.013543 138.981608 C 1066.979979 124.991441 1066.979979 111.001274 1067.013543 97.011106 Z M 1067.013543 97.011106" stroke-linejoin="miter" fill-rule="nonzero" fill="#3642b8" fill-opacity="1" transform="matrix(0.116383, 0, 0, 0.115595, -1.494997, 14.860261)" stroke-linecap="butt"></path><path stroke-miterlimit="4" stroke-opacity="1" stroke-width="0.094" stroke="#3642b8" d="M 1227.011608 97.011106 C 1243.659194 96.977314 1260.306779 96.977314 1276.954365 97.011106 C 1277.055056 121.679759 1276.954365 146.314618 1277.021492 170.98327 C 1299.676976 171.017063 1322.332461 171.017063 1344.987945 170.98327 C 1345.055072 146.314618 1344.954381 121.679759 1345.021509 97.011106 C 1361.669094 96.977314 1378.31668 96.977314 1394.964265 97.011106 C 1394.997829 161.994419 1394.997829 226.977732 1394.964265 291.994837 C 1378.31668 292.02863 1361.669094 292.02863 1345.021509 291.994837 C 1344.820127 265.771722 1345.323582 239.548607 1344.786563 213.325491 C 1322.298897 212.784808 1299.811231 212.818601 1277.323565 213.291699 C 1276.618728 239.514814 1277.18931 265.737929 1276.987928 291.994837 C 1260.40747 291.994837 1243.860576 292.231386 1227.313681 291.758288 C 1226.57528 226.842561 1227.179426 161.926834 1227.011608 97.011106 Z M 1227.011608 97.011106" stroke-linejoin="miter" fill-rule="nonzero" fill="#3642b8" fill-opacity="1" transform="matrix(0.116383, 0, 0, 0.115595, -1.494997, 14.860261)" stroke-linecap="butt"></path><path stroke-miterlimit="4" stroke-opacity="1" stroke-width="0.094" stroke="#3642b8" d="M 1409.027448 97.011106 C 1425.675033 96.977314 1442.322619 96.977314 1458.970204 97.011106 C 1459.20515 147.902874 1458.634567 198.794641 1459.238714 249.686409 C 1484.478601 250.362262 1509.752053 249.821579 1534.991941 250.024336 C 1535.025504 263.913125 1535.092632 277.801914 1534.723431 291.690703 C 1492.835958 292.400349 1450.914921 291.825874 1409.027448 291.994837 C 1408.993884 226.977732 1408.993884 161.994419 1409.027448 97.011106 Z M 1409.027448 97.011106" stroke-linejoin="miter" fill-rule="nonzero" fill="#3642b8" fill-opacity="1" transform="matrix(0.116383, 0, 0, 0.115595, -1.494997, 14.860261)" stroke-linecap="butt"></path><path stroke-miterlimit="4" stroke-opacity="1" stroke-width="0.094" stroke="#3642b8" d="M 1738.018644 97.044899 C 1755.236812 96.943521 1772.45498 96.909728 1789.673148 97.146277 C 1810.986086 132.561 1832.164768 168.0771 1853.746215 203.356652 C 1854.350361 167.908137 1853.813342 132.459622 1854.014724 97.011106 C 1869.991036 96.977314 1886.000912 96.977314 1901.977223 97.011106 C 1902.010787 161.994419 1902.010787 226.977732 1901.977223 291.994837 C 1885.665275 292.02863 1869.38689 292.062422 1853.142068 291.961044 C 1830.956475 254.789103 1808.972265 217.515783 1786.182526 180.715561 C 1785.746198 217.819917 1786.148962 254.890481 1785.981144 291.994837 C 1769.971268 292.02863 1753.994956 292.02863 1738.018644 291.994837 C 1737.98508 227.011524 1737.98508 162.028212 1738.018644 97.044899 Z M 1738.018644 97.044899" stroke-linejoin="miter" fill-rule="nonzero" fill="#3642b8" fill-opacity="1" transform="matrix(0.116383, 0, 0, 0.115595, -1.494997, 14.860261)" stroke-linecap="butt"></path></svg>