<svg version="1.0" preserveAspectRatio="xMidYMid meet" height="200" viewBox="0 0 450 149.999998" zoomAndPan="magnify" width="600" xmlns:xlink="http://www.w3.org/1999/xlink" xmlns="http://www.w3.org/2000/svg"><defs><clipPath id="3a7b458490"><path clip-rule="nonzero" d="M 69 48.628906 L 381 48.628906 L 381 101.128906 L 69 101.128906 Z M 69 48.628906"></path></clipPath></defs><g clip-path="url(#3a7b458490)"><path fill-rule="nonzero" fill-opacity="1" d="M 91.535156 68.453125 L 111.507812 68.453125 L 111.507812 94.410156 L 104.785156 100.96875 L 76.152344 100.96875 L 69.300781 94.4375 L 69.300781 55.175781 L 75.71875 48.628906 L 104.511719 48.628906 L 111.203125 55.175781 L 111.203125 65.84375 L 98.441406 65.84375 L 98.441406 61.632812 L 81.917969 61.632812 L 81.917969 88.265625 L 98.574219 88.265625 L 98.574219 81.460938 L 91.519531 81.460938 Z M 116.5625 81.429688 L 135.8125 81.429688 L 135.8125 68.671875 L 116.5625 68.671875 Z M 153.769531 68.859375 L 153.769531 61.734375 L 170.441406 61.734375 L 170.441406 65.902344 L 183.5625 65.902344 L 183.5625 55.21875 L 176.640625 48.671875 L 147.339844 48.671875 L 140.777344 55.363281 L 140.777344 74.667969 L 147.773438 81.546875 L 170.152344 81.546875 L 170.152344 88.382812 L 153.625 88.382812 L 153.625 84.371094 L 140.71875 84.371094 L 140.71875 94.640625 L 147.5 101.011719 L 176.785156 101.011719 L 183.636719 94.769531 L 183.636719 75.734375 L 177 68.84375 L 153.828125 68.84375 Z M 219.769531 68.714844 L 203.273438 68.714844 L 203.273438 48.628906 L 190.238281 48.628906 L 190.238281 101.113281 L 203.273438 101.113281 L 203.273438 81.589844 L 219.714844 81.589844 L 219.714844 101.113281 L 232.75 101.113281 L 232.75 48.628906 L 219.714844 48.628906 Z M 274.808594 48.671875 L 281.660156 55.417969 L 281.660156 94.480469 L 274.867188 101.011719 L 245.898438 101.011719 L 239.484375 94.652344 L 239.484375 55.449219 L 246.347656 48.613281 L 274.78125 48.613281 Z M 268.683594 61.519531 L 252.519531 61.519531 L 252.519531 88.308594 L 268.683594 88.308594 Z M 295.304688 48.671875 L 288.453125 55.21875 L 288.453125 94.480469 L 294.867188 101.011719 L 324.066406 101.011719 L 330.714844 94.480469 L 330.714844 81.359375 L 318.085938 81.359375 L 318.085938 88.382812 L 301.574219 88.382812 L 301.574219 61.765625 L 318.027344 61.765625 L 318.027344 68.441406 L 330.730469 68.441406 L 330.730469 55.160156 L 324.167969 48.613281 Z M 380.753906 48.671875 L 364.824219 48.671875 L 350.761719 68.035156 L 350.761719 48.628906 L 337.480469 48.628906 L 337.480469 100.96875 L 350.761719 100.96875 L 350.761719 82.222656 L 364.621094 100.96875 L 380.335938 100.96875 L 361.957031 74.871094 L 380.699219 48.628906 Z M 380.753906 48.671875" fill="#000000"></path></g></svg>