<svg xml:space="preserve" style="enable-background:new -153 -46 652 652;" viewBox="-153 -46 652 652" y="0px" x="0px" xmlns:xlink="http://www.w3.org/1999/xlink" xmlns="http://www.w3.org/2000/svg" id="layer" version="1.1">
<style type="text/css">
	.st0{fill:#1D1D1B;}
</style>
<path d="M-107.2,269.4h21.6v31.1c0,15.7-7.8,24.7-23,24.7s-22.9-9-22.9-24.7v-51.1c0-15.7,7.8-24.7,22.9-24.7
	s23,9,23,24.7v9.5h-14.6v-10.5c0-7-3.1-9.7-8-9.7c-4.9,0-8,2.7-8,9.7v53.1c0,7,3.1,9.5,8,9.5s8-2.5,8-9.5v-18.1h-7V269.4z
	 M-63.4,291.5l-19.4-65.6h16.1l11.8,44.8l11.8-44.8h14.7L-48,291.5v32.5h-15.4L-63.4,291.5z M10.2,295.6l10.5-69.7h21.4v98.2H27.6
	v-70.4L17,324.1H2.4l-11.5-69.4v69.4h-13.4v-98.2h21.4L10.2,295.6z M74,224.7c15,0,22.7,9,22.7,24.7v3.1H82.2v-4.1
	c0-7-2.8-9.7-7.7-9.7c-4.9,0-7.7,2.7-7.7,9.7c0,20.2,30.1,24,30.1,52c0,15.7-7.8,24.7-23,24.7s-22.9-9-22.9-24.7v-6h14.6v7.1
	c0,7,3.1,9.5,8,9.5c4.9,0,8-2.5,8-9.5c0-20.2-30.1-24-30.1-52C51.4,233.7,59,224.7,74,224.7 M121.1,324.1h-15.4v-98.2h15.4v42.1
	h17.5v-42.1h15.7v98.2h-15.7V282h-17.5L121.1,324.1z M215.2,324.1h-15.5l-2.7-17.9h-18.9l-2.7,17.9h-14.1l15.7-98.2h22.5
	C199.6,225.9,215.2,324.1,215.2,324.1z M180.1,292.9H195l-7.4-49.7L180.1,292.9z M254.6,324.1c-0.8-2.5-1.4-4.1-1.4-12.1v-15.4
	c0-9.1-3.1-12.5-10.1-12.5h-5.3v40h-15.4v-98.2h23.2c16,0,22.8,7.4,22.8,22.6v7.7c0,10.1-3.2,16.7-10.1,19.9
	c7.7,3.2,10.2,10.7,10.2,20.9v15.2c0,4.8,0.1,8.3,1.7,11.9C270.2,324.1,254.6,324.1,254.6,324.1z M237.8,239.9V270h6
	c5.7,0,9.2-2.5,9.2-10.4V250c0-7-2.4-10.1-7.8-10.1L237.8,239.9L237.8,239.9z M298.8,284.9l-4.8,9v30.2h-15.4v-98.2H294v42.8
	l20.2-42.8h15.4l-21.4,43.8l21.4,54.4h-15.8L298.8,284.9z M468.5,225.8H340.2l92.6,15.7l-37.7,57.9H392l-5.3,5.2l-5.5-5.2h-1.5
	l-5.3,5.3l-5.3-5.3h-1.8l-5.3,5.3l-5.5-5.3h-16.3l21.5,8.4l5.8-2.8l3.2,6.3l1.6,0.6l6.6-3.3l3.5,7.3l1.4,0.5l-4.9,7.6L468.5,225.8z" class="st0"></path>
<path d="M355.5,248.1l37.7,9l-16.2,1.8L355.5,248.1z" class="st0"></path>
</svg>
