<svg version="1.0" preserveAspectRatio="xMidYMid meet" height="100" viewBox="0 0 224.87999 74.999997" zoomAndPan="magnify" width="300" xmlns:xlink="http://www.w3.org/1999/xlink" xmlns="http://www.w3.org/2000/svg"><path fill-rule="nonzero" fill-opacity="1" d="M 213.84375 59.964844 L 11.089844 59.964844 L 11.089844 15.320312 L 213.84375 15.320312 Z M 213.84375 59.964844" fill="#286fb7"></path><path fill-rule="nonzero" fill-opacity="1" d="M 85.121094 39.539062 L 85.386719 39.539062 C 86.296875 40.167969 86.648438 40.542969 87.308594 41.183594 L 87.308594 41.226562 L 87.265625 41.226562 C 87.265625 41.226562 87.214844 41.183594 87.140625 41.113281 C 87.054688 41.035156 86.917969 40.9375 86.742188 40.785156 C 86.394531 40.511719 85.84375 40.109375 85.121094 39.59375 Z M 86.355469 39.464844 L 84.535156 39.464844 L 84.535156 40.191406 C 84.710938 40.253906 84.859375 40.332031 85.011719 40.394531 C 85.84375 40.71875 86.242188 40.96875 86.257812 40.980469 C 86.304688 41.023438 88.164062 41.996094 89.707031 43.414062 C 91.253906 44.84375 91.515625 44.71875 93.410156 46.835938 L 93.644531 47.109375 C 92.699219 45.71875 91.328125 44.253906 89.132812 42.261719 C 88.898438 42.046875 88.648438 41.820312 88.410156 41.582031 C 87.640625 40.855469 86.890625 40.066406 86.355469 39.464844" fill="#d9e0f1"></path><path fill-rule="nonzero" fill-opacity="1" d="M 90.996094 43.734375 C 89.652344 42.453125 87.847656 40.699219 86.675781 39.347656 L 86.324219 39.347656 C 87.160156 40.3125 88.179688 41.378906 89.140625 42.242188 C 91.492188 44.371094 92.90625 45.914062 93.863281 47.394531 L 93.390625 46.855469 C 91.492188 44.734375 91.25 44.863281 89.691406 43.433594 C 88.132812 41.992188 86.234375 41 86.234375 41 C 86.234375 41 85.675781 40.636719 84.453125 40.210938 L 84.453125 40.777344 C 86.089844 41.363281 86.808594 41.777344 86.808594 41.777344 C 86.808594 41.777344 89.207031 43.132812 90.960938 44.835938 C 92.464844 46.304688 92.808594 46.679688 93.152344 47.066406 C 93.152344 47.066406 93.878906 47.582031 94.238281 47.730469 C 94.238281 47.730469 93.625 46.226562 90.996094 43.734375" fill="#286fb7"></path><path fill-rule="nonzero" fill-opacity="1" d="M 90.996094 43.734375 C 89.648438 42.441406 87.84375 40.699219 86.6875 39.347656 L 86.292969 39.347656 L 86.292969 39.386719 C 87.113281 40.339844 88.148438 41.40625 89.105469 42.285156 C 91.460938 44.414062 92.867188 45.945312 93.816406 47.421875 L 93.859375 47.421875 L 93.378906 46.882812 C 91.488281 44.765625 91.238281 44.890625 89.679688 43.460938 C 88.121094 42.019531 86.238281 41.019531 86.238281 41.019531 L 86.199219 41.058594 L 86.238281 41.019531 C 86.238281 41.019531 85.667969 40.667969 84.433594 40.226562 L 84.433594 40.832031 C 85.253906 41.136719 85.839844 41.386719 86.226562 41.5625 C 86.414062 41.660156 86.566406 41.722656 86.652344 41.773438 C 86.75 41.824219 86.792969 41.847656 86.792969 41.847656 C 86.792969 41.847656 86.9375 41.9375 87.191406 42.085938 C 87.945312 42.550781 89.621094 43.628906 90.925781 44.894531 C 92.445312 46.359375 92.78125 46.738281 93.128906 47.125 C 93.128906 47.125 93.855469 47.640625 94.214844 47.777344 L 94.257812 47.777344 L 94.257812 47.734375 C 94.257812 47.734375 93.644531 46.230469 91.015625 43.738281 C 92.320312 44.992188 93.128906 45.980469 93.605469 46.671875 C 93.855469 47.007812 94.015625 47.285156 94.105469 47.460938 C 94.152344 47.546875 94.195312 47.609375 94.214844 47.660156 C 94.214844 47.710938 94.257812 47.722656 94.257812 47.722656 L 94.296875 47.722656 L 94.296875 47.679688 C 94.136719 47.605469 93.859375 47.441406 93.632812 47.304688 C 93.414062 47.15625 93.226562 47.03125 93.226562 47.03125 C 92.886719 46.640625 92.535156 46.265625 91.027344 44.796875 C 89.273438 43.09375 86.878906 41.742188 86.878906 41.742188 C 86.878906 41.742188 86.148438 41.3125 84.511719 40.726562 L 84.511719 40.765625 L 84.554688 40.765625 L 84.554688 40.203125 L 84.511719 40.203125 C 85.125 40.429688 85.574219 40.628906 85.875 40.765625 C 86.019531 40.84375 86.125 40.890625 86.199219 40.929688 C 86.269531 40.980469 86.304688 40.992188 86.304688 40.992188 C 86.304688 40.992188 86.421875 41.054688 86.617188 41.179688 C 87.230469 41.519531 88.574219 42.347656 89.746094 43.425781 C 91.304688 44.867188 91.550781 44.742188 93.445312 46.847656 L 93.921875 47.386719 L 93.960938 47.386719 L 93.960938 47.34375 C 92.996094 45.863281 91.59375 44.324219 89.25 42.191406 C 88.289062 41.328125 87.253906 40.25 86.433594 39.296875 L 86.394531 39.296875 L 86.394531 39.339844 L 86.746094 39.339844 L 86.746094 39.296875 L 86.746094 39.339844 C 87.90625 40.679688 89.714844 42.433594 91.074219 43.710938 Z M 90.996094 43.734375" fill="#286fb7"></path><path fill-rule="nonzero" fill-opacity="1" d="M 87.292969 41.183594 C 86.621094 40.542969 86.285156 40.179688 85.363281 39.542969 L 85.136719 39.542969 C 86.609375 40.570312 87.292969 41.183594 87.292969 41.183594" fill="#286fb7"></path><path fill-rule="nonzero" fill-opacity="1" d="M 87.292969 41.183594 C 86.621094 40.542969 86.285156 40.167969 85.363281 39.527344 L 85.136719 39.527344 L 85.136719 39.570312 C 85.875 40.085938 86.410156 40.484375 86.769531 40.773438 C 86.945312 40.910156 87.070312 41.023438 87.167969 41.101562 C 87.246094 41.164062 87.292969 41.199219 87.292969 41.199219 L 87.335938 41.199219 L 87.335938 41.15625 C 87.335938 41.15625 86.652344 40.53125 85.179688 39.515625 L 85.179688 39.558594 L 85.40625 39.558594 L 85.40625 39.515625 C 86.3125 40.15625 86.664062 40.53125 87.335938 41.15625 Z M 87.292969 41.183594" fill="#286fb7"></path><path fill-rule="nonzero" fill-opacity="1" d="M 86.746094 39.46875 L 86.460938 39.46875 C 87.269531 40.394531 88.242188 41.398438 89.164062 42.226562 C 91.519531 44.367188 92.925781 45.898438 93.886719 47.375 L 93.886719 47.417969 L 93.84375 47.417969 L 93.371094 46.867188 C 91.476562 44.761719 91.226562 44.886719 89.671875 43.457031 C 88.5 42.378906 87.152344 41.550781 86.542969 41.203125 C 86.34375 41.089844 86.230469 41.027344 86.230469 41.027344 C 86.230469 41.027344 86.191406 40.984375 86.117188 40.964844 C 86.042969 40.921875 85.945312 40.863281 85.796875 40.789062 C 85.507812 40.648438 85.097656 40.472656 84.523438 40.261719 L 84.523438 40.773438 C 86.105469 41.351562 86.816406 41.765625 86.816406 41.765625 C 86.816406 41.765625 89.210938 43.117188 90.964844 44.824219 C 92.472656 46.289062 92.824219 46.664062 93.160156 47.054688 C 93.203125 47.054688 93.359375 47.191406 93.570312 47.332031 C 93.769531 47.46875 94.019531 47.605469 94.183594 47.695312 C 94.183594 47.695312 94.183594 47.695312 94.183594 47.652344 C 94.140625 47.609375 94.121094 47.539062 94.082031 47.453125 C 93.980469 47.277344 93.820312 47.011719 93.582031 46.660156 C 93.097656 45.984375 92.289062 44.980469 90.980469 43.742188 L 90.980469 43.699219 L 90.980469 43.742188 C 89.65625 42.488281 87.914062 40.796875 86.742188 39.453125" fill="#1f60ad"></path><path fill-rule="nonzero" fill-opacity="1" d="M 91.011719 43.714844 Z M 84.53125 40.769531 L 84.53125 40.820312 C 85.304688 41.109375 85.867188 41.347656 86.226562 41.523438 C 86.425781 41.609375 86.5625 41.671875 86.664062 41.722656 C 86.75 41.773438 86.800781 41.796875 86.800781 41.796875 C 86.800781 41.796875 86.949219 41.886719 87.199219 42.035156 C 87.945312 42.5 89.617188 43.578125 90.9375 44.84375 C 92.457031 46.324219 92.792969 46.6875 93.144531 47.085938 C 93.144531 47.085938 93.867188 47.601562 94.226562 47.753906 L 94.269531 47.753906 L 94.269531 47.710938 C 94.269531 47.710938 93.660156 46.207031 91.027344 43.710938 L 91.027344 43.753906 C 92.335938 44.996094 93.148438 45.996094 93.621094 46.675781 C 93.859375 47.023438 94.019531 47.289062 94.121094 47.464844 C 94.167969 47.550781 94.207031 47.625 94.21875 47.664062 C 94.042969 47.589844 93.808594 47.453125 93.597656 47.3125 C 93.398438 47.175781 93.222656 47.050781 93.195312 47.039062 C 92.847656 46.648438 92.511719 46.273438 91.003906 44.808594 C 89.234375 43.101562 86.855469 41.75 86.855469 41.75 C 86.855469 41.75 86.144531 41.335938 84.5625 40.757812 M 86.480469 39.453125 L 86.429688 39.453125 C 87.242188 40.382812 88.238281 41.410156 89.160156 42.25 C 91.351562 44.242188 92.734375 45.710938 93.683594 47.101562 L 93.433594 46.824219 C 91.539062 44.707031 91.289062 44.832031 89.734375 43.402344 C 88.199219 41.988281 86.332031 40.996094 86.28125 40.972656 C 86.28125 40.972656 85.871094 40.722656 85.035156 40.382812 C 84.886719 40.320312 84.734375 40.257812 84.5625 40.195312 L 84.5625 40.246094 C 85.121094 40.457031 85.546875 40.632812 85.820312 40.769531 C 85.96875 40.847656 86.082031 40.910156 86.15625 40.945312 C 86.230469 40.988281 86.257812 41.007812 86.257812 41.007812 C 86.257812 41.007812 86.378906 41.070312 86.578125 41.183594 C 87.179688 41.535156 88.535156 42.363281 89.707031 43.441406 C 91.265625 44.871094 91.503906 44.742188 93.398438 46.851562 L 93.871094 47.402344 L 93.910156 47.402344 L 93.910156 47.359375 C 92.953125 45.878906 91.542969 44.339844 89.1875 42.207031 C 88.277344 41.382812 87.292969 40.378906 86.484375 39.449219 M 86.832031 39.449219 L 86.785156 39.449219 C 87.941406 40.792969 89.699219 42.484375 91.019531 43.738281 L 91.019531 43.695312 C 89.710938 42.453125 87.980469 40.773438 86.808594 39.445312" fill="#1f60ad"></path><path fill-rule="nonzero" fill-opacity="1" d="M 85.359375 39.5625 L 85.210938 39.5625 C 85.9375 40.0625 86.457031 40.476562 86.808594 40.742188 C 86.394531 40.351562 86.035156 40.027344 85.359375 39.5625" fill="#1f60ad"></path><path fill-rule="nonzero" fill-opacity="1" d="M 85.214844 39.5625 L 85.351562 39.5625 C 86.023438 40.039062 86.386719 40.351562 86.808594 40.753906 C 86.460938 40.476562 85.921875 40.074219 85.214844 39.5625 M 85.363281 39.511719 L 85.136719 39.511719 L 85.136719 39.554688 C 85.875 40.066406 86.410156 40.480469 86.757812 40.757812 C 86.945312 40.894531 87.070312 41.007812 87.15625 41.082031 C 87.246094 41.144531 87.28125 41.183594 87.292969 41.195312 L 87.335938 41.195312 L 87.335938 41.152344 C 86.664062 40.515625 86.3125 40.152344 85.40625 39.511719 Z M 85.363281 39.511719" fill="#1f60ad"></path><path fill-rule="nonzero" fill-opacity="1" d="M 23.714844 28.28125 L 35.640625 28.28125 L 35.640625 32.332031 L 34.183594 32.332031 C 33.484375 32.332031 33.273438 32.605469 33.273438 33.296875 L 33.273438 42.433594 C 33.273438 42.871094 33.632812 43.273438 34.230469 43.273438 L 37.671875 43.273438 C 38.121094 43.273438 38.679688 42.960938 38.679688 42.320312 L 38.679688 39.035156 L 43.441406 39.035156 L 43.441406 47.332031 L 23.714844 47.332031 L 23.714844 43.285156 L 25.109375 43.285156 C 25.757812 43.285156 26.09375 43.070312 26.09375 42.40625 L 26.09375 33.296875 C 26.09375 32.707031 25.984375 32.332031 25.199219 32.332031 L 23.714844 32.332031 Z M 23.714844 28.28125" fill="#ffffff"></path><path fill-rule="nonzero" fill-opacity="1" d="M 45.519531 28.28125 L 65.128906 28.28125 L 65.128906 34.398438 L 60.222656 34.398438 L 60.222656 33.382812 C 60.222656 32.757812 59.910156 32.332031 58.960938 32.332031 L 54.691406 32.332031 L 54.691406 35.777344 L 59.300781 35.777344 L 59.300781 39.476562 L 54.691406 39.476562 L 54.691406 43.273438 L 59.160156 43.273438 C 59.75 43.273438 60.222656 42.910156 60.222656 42.230469 L 60.222656 41.191406 L 65.128906 41.191406 L 65.128906 47.332031 L 45.519531 47.332031 L 45.519531 43.285156 L 46.578125 43.285156 C 47.136719 43.285156 47.523438 43.058594 47.523438 42.484375 L 47.523438 33.332031 C 47.523438 32.71875 47.425781 32.332031 46.640625 32.332031 L 45.519531 32.332031 Z M 45.519531 28.28125" fill="#ffffff"></path><path fill-rule="nonzero" fill-opacity="1" d="M 74.898438 28.28125 L 94.980469 28.28125 L 94.980469 34.398438 L 90.066406 34.398438 L 90.066406 33.359375 C 90.066406 32.808594 89.730469 32.332031 88.980469 32.332031 L 84.535156 32.332031 L 84.535156 35.777344 L 88.644531 35.777344 L 88.644531 39.476562 L 84.535156 39.476562 L 84.535156 42.21875 C 84.535156 42.984375 84.855469 43.285156 85.839844 43.285156 L 87.398438 43.285156 L 87.398438 47.332031 L 74.898438 47.332031 L 74.898438 43.285156 L 76.554688 43.285156 C 77.035156 43.285156 77.367188 42.972656 77.367188 42.484375 L 77.367188 33.332031 C 77.367188 32.757812 77.265625 32.332031 76.484375 32.332031 L 74.898438 32.332031 Z M 74.898438 28.28125" fill="#ffffff"></path><path fill-rule="nonzero" fill-opacity="1" d="M 106.351562 33.292969 C 106.351562 32.578125 106.578125 32.339844 107.261719 32.339844 L 108.734375 32.339844 L 108.734375 28.277344 L 96.882812 28.277344 L 96.882812 32.339844 L 98.390625 32.339844 C 99.1875 32.339844 99.300781 32.703125 99.300781 33.292969 L 99.300781 42.429688 C 99.300781 43.144531 98.863281 43.292969 98.363281 43.292969 L 96.882812 43.292969 L 96.882812 47.328125 L 108.734375 47.328125 L 108.734375 43.292969 L 107.289062 43.292969 C 106.714844 43.292969 106.351562 43.066406 106.351562 42.402344 Z M 106.351562 33.292969" fill="#ffffff"></path><path fill-rule="nonzero" fill-opacity="1" d="M 126.195312 28.28125 L 130.394531 28.28125 L 130.394531 34.976562 L 126.171875 34.976562 C 126.171875 34.976562 124.960938 32.054688 121.546875 32.054688 C 118.992188 32.054688 117 33.910156 117 37.34375 C 117 43.160156 120.203125 43.648438 121.585938 43.648438 C 124.425781 43.648438 125.085938 41.628906 125.085938 40.816406 L 122.445312 40.816406 L 122.445312 37.304688 L 131.53125 37.304688 C 131.53125 37.304688 131.488281 38.734375 131.488281 39.75 C 131.488281 40.238281 131.015625 47.671875 120.832031 47.671875 C 113.480469 47.671875 109.628906 43.449219 109.628906 37.433594 C 109.628906 33.433594 112.746094 27.996094 120.210938 27.996094 C 124.386719 27.996094 126.191406 29.710938 126.191406 29.710938 L 126.191406 28.28125 Z M 126.195312 28.28125" fill="#ffffff"></path><path fill-rule="nonzero" fill-opacity="1" d="M 153.753906 43.289062 C 152.941406 43.289062 152.695312 42.5625 152.207031 41.382812 C 151.808594 40.417969 147.199219 28.285156 147.199219 28.285156 L 139.894531 28.285156 C 139.894531 28.285156 134.9375 41.773438 134.710938 42.347656 C 134.425781 43.023438 134.011719 43.289062 133.277344 43.289062 L 132.21875 43.289062 L 132.21875 47.324219 L 141.152344 47.324219 L 141.152344 43.488281 L 139.921875 43.488281 C 139.382812 43.488281 139.261719 43.074219 139.433594 42.5 C 139.644531 41.835938 140.007812 40.792969 140.007812 40.792969 L 145.429688 40.792969 C 145.429688 40.792969 145.726562 41.734375 146.015625 42.597656 C 146.226562 43.25 145.539062 43.488281 145.128906 43.488281 L 144.070312 43.488281 L 144.070312 47.324219 L 154.824219 47.324219 L 154.824219 43.289062 Z M 140.878906 38.175781 L 142.75 32.574219 L 142.8125 32.574219 L 144.59375 38.175781 Z M 140.878906 38.175781" fill="#ffffff"></path><path fill-rule="nonzero" fill-opacity="1" d="M 178.976562 43.289062 C 178.242188 43.289062 178.128906 42.9375 177.753906 42.449219 C 177.394531 41.960938 175.125 38.402344 175.125 38.402344 C 175.125 38.402344 178.441406 37.472656 178.441406 33.914062 C 178.441406 30.367188 175.488281 29.101562 174.226562 28.773438 C 172.96875 28.449219 170.253906 28.285156 169.515625 28.285156 L 156.570312 28.285156 L 156.570312 32.335938 L 157.839844 32.335938 C 158.652344 32.335938 158.75 32.734375 158.75 33.285156 L 158.75 42.335938 C 158.75 42.738281 158.6875 43.289062 157.804688 43.289062 L 156.570312 43.289062 L 156.570312 47.324219 L 167.972656 47.324219 L 167.972656 43.289062 L 166.8125 43.289062 C 166.015625 43.289062 165.914062 42.851562 165.914062 42.375 L 165.914062 39.289062 L 168.457031 39.289062 L 173.132812 47.324219 L 180.285156 47.324219 L 180.285156 43.289062 Z M 168.507812 35.992188 L 165.914062 35.992188 L 165.914062 32.070312 L 168.730469 32.070312 C 169.554688 32.070312 171.011719 32.371094 171.011719 34.078125 C 171.011719 35.355469 170.078125 35.992188 168.507812 35.992188" fill="#ffffff"></path><path fill-rule="nonzero" fill-opacity="1" d="M 190.828125 27.992188 C 182.875 27.992188 179.996094 33.34375 179.996094 37.632812 C 179.996094 43.320312 183.984375 47.671875 190.753906 47.671875 C 196.785156 47.671875 201.53125 44.347656 201.53125 37.871094 C 201.53125 31.714844 196.996094 27.992188 190.828125 27.992188 M 190.953125 43.648438 C 189.207031 43.648438 187.375 42.605469 187.375 37.304688 C 187.375 34.035156 188.621094 32.003906 190.753906 32.003906 C 192.769531 32.003906 194.242188 33.34375 194.242188 37.667969 C 194.242188 42.34375 192.707031 43.648438 190.953125 43.648438" fill="#ffffff"></path><path fill-rule="nonzero" fill-opacity="1" d="M 76.519531 28.195312 L 76.519531 28.285156 L 76.707031 28.285156 C 76.632812 28.242188 76.570312 28.222656 76.507812 28.195312 M 72.878906 26.84375 L 73.09375 29.199219 C 73.304688 29.4375 73.515625 29.664062 73.753906 29.875 L 73.539062 27.34375 L 73.582031 27.34375 L 73.808594 29.925781 C 74.019531 30.113281 74.230469 30.300781 74.453125 30.476562 L 74.230469 27.757812 L 74.28125 27.757812 L 74.503906 30.527344 C 74.628906 30.628906 74.765625 30.714844 74.890625 30.816406 L 74.890625 28.296875 L 74.933594 28.296875 L 74.933594 28.144531 L 74.972656 28.144531 L 74.972656 28.296875 L 75.496094 28.296875 C 74.5625 27.90625 73.679688 27.40625 72.878906 26.855469 M 72.183594 26.355469 L 72.355469 28.347656 C 72.570312 28.621094 72.792969 28.898438 73.042969 29.160156 L 72.84375 26.84375 L 72.882812 26.84375 C 72.648438 26.679688 72.421875 26.515625 72.199219 26.355469 M 71.5 25.800781 L 71.625 27.320312 C 71.835938 27.632812 72.0625 27.957031 72.324219 28.285156 L 72.148438 26.316406 C 71.925781 26.140625 71.714844 25.976562 71.5 25.800781 M 70.816406 25.214844 L 70.878906 26.066406 C 71.050781 26.390625 71.265625 26.753906 71.5 27.128906 C 71.542969 27.171875 71.550781 27.207031 71.574219 27.230469 L 71.453125 25.765625 C 71.226562 25.578125 71.015625 25.386719 70.816406 25.214844 M 70.167969 24.597656 C 70.21875 24.738281 70.304688 24.9375 70.417969 25.175781 C 70.527344 25.402344 70.667969 25.675781 70.828125 25.964844 L 70.777344 25.175781 C 70.542969 24.976562 70.34375 24.773438 70.167969 24.597656 M 69.195312 23.597656 C 69.238281 24.636719 69.40625 25.75 69.582031 26.542969 C 69.644531 26.855469 69.730469 27.191406 69.820312 27.542969 C 69.820312 27.59375 69.859375 27.621094 69.859375 27.621094 C 69.648438 27.519531 69.5 27.40625 69.386719 27.304688 C 69.289062 27.242188 69.1875 27.144531 69.0625 27.03125 C 69.105469 27.117188 69.113281 27.191406 69.125 27.269531 C 69.175781 27.382812 69.226562 27.519531 69.273438 27.65625 C 69.460938 28.132812 69.734375 28.761719 70.109375 29.4375 C 70.832031 30.789062 71.890625 32.320312 73.273438 33.007812 L 73.273438 33.050781 L 73.234375 33.09375 C 73.234375 33.09375 73.132812 33.09375 72.972656 33.09375 C 73.035156 33.132812 73.070312 33.140625 73.070312 33.140625 C 72.421875 33.066406 71.824219 32.867188 71.539062 32.753906 C 71.582031 32.796875 71.601562 32.816406 71.636719 32.855469 C 71.789062 33.003906 72.039062 33.230469 72.421875 33.53125 C 73.222656 34.132812 74.578125 35.035156 76.871094 36.238281 L 76.871094 36.28125 C 76.871094 36.28125 76.796875 36.320312 76.621094 36.332031 L 76.582031 36.332031 C 76.519531 36.332031 76.433594 36.332031 76.332031 36.332031 C 76.082031 36.332031 75.734375 36.289062 75.273438 36.191406 C 75.316406 36.191406 75.324219 36.234375 75.347656 36.234375 C 75.460938 36.308594 75.621094 36.410156 75.832031 36.535156 C 76.21875 36.773438 76.742188 37.085938 77.339844 37.414062 L 77.339844 33.390625 C 77.339844 32.8125 77.242188 32.386719 76.457031 32.386719 L 74.875 32.386719 L 74.875 31.144531 C 72.519531 29.527344 70.664062 26.230469 70.039062 24.554688 C 69.492188 24.015625 69.167969 23.636719 69.167969 23.636719" fill="#d9e0f1"></path><path fill-rule="nonzero" fill-opacity="1" d="M 80.496094 31.410156 L 80.792969 34.910156 C 81.054688 35.183594 81.28125 35.433594 81.464844 35.6875 L 81.191406 32.488281 L 81.152344 32.488281 C 81.039062 32.277344 80.890625 32.027344 80.703125 31.75 C 80.640625 31.636719 80.550781 31.535156 80.476562 31.425781 M 74.882812 31.097656 L 74.882812 32.351562 L 76.464844 32.351562 C 77.25 32.351562 77.351562 32.777344 77.351562 33.34375 L 77.351562 37.378906 C 77.398438 37.417969 77.449219 37.429688 77.5 37.453125 C 78.769531 38.140625 80.351562 38.882812 81.585938 39.09375 L 81.585938 33.292969 C 81.585938 33.292969 81.476562 33.003906 81.238281 32.578125 L 81.511719 35.761719 C 81.511719 35.761719 81.511719 35.800781 81.511719 35.800781 L 81.511719 36.089844 L 81.46875 36.089844 C 81.269531 35.765625 79.949219 33.898438 75.453125 31.464844 C 75.253906 31.351562 75.054688 31.226562 74.851562 31.089844 M 74.902344 28.28125 L 74.851562 28.28125 L 74.851562 30.800781 C 74.941406 30.863281 75.027344 30.925781 75.128906 30.988281 Z M 76.671875 28.28125 L 76.484375 28.28125 L 76.527344 28.53125 L 76.527344 28.574219 L 76.484375 28.574219 C 76.484375 28.574219 76.484375 28.574219 76.445312 28.574219 C 76.445312 28.625 76.445312 28.648438 76.402344 28.648438 C 76.078125 28.5625 75.765625 28.449219 75.457031 28.3125 L 74.921875 28.3125 L 75.144531 31.042969 C 75.355469 31.183594 75.566406 31.308594 75.792969 31.433594 L 75.554688 28.539062 L 75.597656 28.539062 L 75.847656 31.46875 C 75.847656 31.46875 75.886719 31.46875 75.894531 31.511719 C 76.09375 31.613281 76.28125 31.726562 76.480469 31.824219 L 76.21875 28.816406 L 76.304688 28.816406 L 76.566406 31.851562 C 76.777344 31.976562 77 32.101562 77.214844 32.238281 L 76.902344 28.605469 L 76.953125 28.605469 L 77.261719 32.277344 C 77.476562 32.414062 77.699219 32.550781 77.910156 32.691406 L 77.585938 28.96875 L 77.636719 28.96875 L 77.949219 32.714844 C 78.171875 32.867188 78.382812 33.015625 78.597656 33.167969 L 78.285156 29.40625 L 78.324219 29.40625 L 78.648438 33.203125 C 78.875 33.367188 79.085938 33.53125 79.296875 33.691406 L 78.972656 29.933594 L 79.023438 29.933594 L 79.347656 33.742188 C 79.574219 33.929688 79.808594 34.117188 80.019531 34.308594 L 79.695312 30.648438 L 79.738281 30.648438 L 80.0625 34.355469 C 80.3125 34.570312 80.523438 34.769531 80.722656 34.972656 L 80.425781 31.460938 C 79.640625 30.410156 78.417969 29.167969 76.699219 28.390625" fill="#ffffff"></path><path fill-rule="nonzero" fill-opacity="1" d="M 81.160156 32.101562 C 80.699219 31.3125 79.75 29.871094 78.730469 29.15625 C 77.246094 28.105469 76.050781 27.628906 76.050781 27.628906 L 76.375 28.269531 C 76.375 28.269531 73.882812 27.316406 72.820312 26.550781 C 71.226562 25.386719 68.972656 23.152344 68.972656 23.152344 C 68.847656 24.785156 69.542969 27.226562 69.542969 27.226562 C 69.234375 27.078125 68.710938 26.386719 68.710938 26.386719 C 69.804688 31.023438 72.558594 32.804688 72.558594 32.804688 C 72.375 32.804688 70.941406 32.304688 70.941406 32.304688 C 72.347656 34.296875 76.285156 36.050781 76.285156 36.050781 C 75.863281 36.050781 74.53125 35.761719 74.53125 35.761719 C 78.082031 38.582031 81.707031 39.433594 81.707031 39.433594 L 81.707031 39.121094 C 79.175781 38.746094 75.164062 36.078125 75.164062 36.078125 C 76.375 36.390625 76.871094 36.1875 76.871094 36.1875 C 72.261719 33.796875 71.414062 32.59375 71.414062 32.59375 C 72.238281 33.019531 73.234375 33.019531 73.234375 33.019531 C 70.46875 31.625 68.945312 26.902344 68.945312 26.902344 C 69.445312 27.414062 69.78125 27.527344 69.78125 27.527344 C 69.070312 24.808594 69.046875 23.316406 69.046875 23.316406 C 69.121094 23.503906 70.503906 25.085938 73.058594 26.839844 C 74.777344 28.003906 76.535156 28.53125 76.535156 28.53125 L 76.460938 28.066406 C 76.460938 28.066406 76.847656 28.066406 78.640625 29.394531 C 79.851562 30.285156 80.761719 31.691406 81.171875 32.464844 L 81.128906 32.101562 Z M 81.160156 32.101562" fill="#286fb7"></path><path fill-rule="nonzero" fill-opacity="1" d="M 81.160156 32.101562 L 81.199219 32.101562 C 80.738281 31.3125 79.78125 29.871094 78.769531 29.144531 C 77.273438 28.105469 76.078125 27.617188 76.078125 27.617188 L 76.039062 27.617188 L 76.039062 27.65625 L 76.363281 28.296875 L 76.402344 28.296875 L 76.402344 28.253906 C 76.402344 28.253906 76.253906 28.207031 76.003906 28.105469 C 75.257812 27.804688 73.660156 27.128906 72.875 26.550781 C 72.066406 25.960938 71.105469 25.109375 70.347656 24.40625 C 69.960938 24.054688 69.636719 23.742188 69.386719 23.519531 C 69.164062 23.292969 69.011719 23.152344 69.011719 23.152344 L 68.972656 23.152344 C 68.972656 23.292969 68.972656 23.441406 68.972656 23.59375 C 68.972656 25.183594 69.558594 27.226562 69.558594 27.226562 L 69.597656 27.226562 L 69.597656 27.1875 C 69.449219 27.125 69.238281 26.910156 69.0625 26.722656 C 68.988281 26.621094 68.914062 26.535156 68.851562 26.457031 C 68.800781 26.394531 68.777344 26.359375 68.777344 26.359375 L 68.734375 26.359375 L 68.734375 26.398438 C 69.84375 31.050781 72.597656 32.84375 72.597656 32.84375 L 72.597656 32.800781 C 72.554688 32.800781 72.4375 32.757812 72.273438 32.714844 C 72.023438 32.636719 71.699219 32.539062 71.4375 32.449219 C 71.175781 32.363281 70.976562 32.285156 70.976562 32.285156 L 70.9375 32.285156 L 70.9375 32.328125 C 72.355469 34.320312 76.308594 36.089844 76.308594 36.089844 L 76.308594 36.046875 C 76.109375 36.046875 75.660156 35.972656 75.273438 35.898438 C 74.886719 35.832031 74.550781 35.757812 74.550781 35.757812 L 74.507812 35.757812 L 74.507812 35.800781 C 78.074219 38.621094 81.710938 39.472656 81.710938 39.472656 L 81.753906 39.472656 L 81.753906 39.160156 L 81.710938 39.117188 C 80.453125 38.929688 78.820312 38.179688 77.511719 37.464844 C 76.851562 37.113281 76.265625 36.761719 75.855469 36.511719 C 75.644531 36.386719 75.480469 36.273438 75.367188 36.199219 C 75.242188 36.121094 75.183594 36.085938 75.183594 36.085938 L 75.183594 36.125 C 75.703125 36.265625 76.089844 36.300781 76.367188 36.300781 C 76.726562 36.300781 76.890625 36.238281 76.890625 36.238281 L 76.890625 36.15625 C 74.597656 34.964844 73.226562 34.074219 72.441406 33.472656 C 72.054688 33.160156 71.804688 32.933594 71.65625 32.796875 C 71.582031 32.722656 71.53125 32.660156 71.492188 32.621094 C 71.453125 32.578125 71.453125 32.578125 71.453125 32.578125 C 72.285156 33.019531 73.285156 33.019531 73.285156 33.019531 L 73.324219 32.976562 L 73.324219 32.933594 C 71.941406 32.246094 70.871094 30.714844 70.148438 29.363281 C 69.785156 28.6875 69.511719 28.058594 69.324219 27.59375 C 69.238281 27.355469 69.164062 27.167969 69.125 27.042969 C 69.074219 26.90625 69.050781 26.832031 69.050781 26.832031 L 69.007812 26.832031 C 69.507812 27.355469 69.84375 27.46875 69.855469 27.46875 L 69.855469 27.429688 C 69.507812 26.0625 69.320312 25.007812 69.222656 24.292969 C 69.171875 23.945312 69.144531 23.667969 69.132812 23.492188 C 69.132812 23.304688 69.09375 23.21875 69.09375 23.21875 L 69.050781 23.21875 C 69.09375 23.28125 69.175781 23.40625 69.347656 23.605469 C 69.898438 24.21875 71.15625 25.433594 73.074219 26.765625 C 74.796875 27.929688 76.550781 28.457031 76.566406 28.457031 L 76.566406 28.414062 L 76.488281 27.9375 L 76.449219 27.9375 C 76.488281 27.9375 76.921875 28.027344 78.605469 29.265625 C 79.800781 30.15625 80.710938 31.558594 81.121094 32.335938 L 81.164062 32.335938 L 81.164062 32.296875 L 81.121094 31.933594 L 81.039062 31.933594 L 81.082031 32.296875 L 81.164062 32.296875 C 80.738281 31.519531 79.828125 30.113281 78.621094 29.210938 C 76.828125 27.894531 76.441406 27.882812 76.429688 27.882812 L 76.429688 27.925781 L 76.503906 28.390625 L 76.542969 28.390625 L 76.542969 28.347656 C 76.542969 28.347656 76.433594 28.304688 76.234375 28.257812 C 75.660156 28.046875 74.351562 27.53125 73.066406 26.667969 C 71.796875 25.789062 70.8125 24.949219 70.140625 24.3125 C 69.800781 24 69.539062 23.722656 69.355469 23.523438 C 69.179688 23.320312 69.078125 23.183594 69.054688 23.144531 L 69.011719 23.144531 L 69.011719 23.1875 C 69.011719 23.1875 69.054688 24.679688 69.75 27.410156 L 69.789062 27.410156 C 69.714844 27.371094 69.402344 27.25 68.96875 26.785156 L 68.925781 26.785156 L 68.925781 26.828125 C 68.925781 26.828125 70.445312 31.5625 73.226562 32.96875 L 73.226562 32.882812 C 73.226562 32.882812 73.164062 32.882812 73.050781 32.882812 C 72.738281 32.882812 72.027344 32.785156 71.417969 32.472656 L 71.375 32.472656 L 71.375 32.511719 C 71.375 32.511719 72.25 33.726562 76.847656 36.121094 L 76.847656 36.039062 C 76.847656 36.039062 76.847656 36.039062 76.804688 36.039062 C 76.742188 36.082031 76.582031 36.101562 76.320312 36.101562 C 76.058594 36.101562 75.671875 36.058594 75.148438 35.925781 L 75.105469 35.925781 L 75.105469 35.96875 C 75.105469 35.96875 79.121094 38.636719 81.660156 39 L 81.621094 39 L 81.621094 39.328125 L 81.660156 39.328125 L 81.660156 39.285156 C 81.660156 39.285156 81.597656 39.285156 81.5 39.242188 C 80.753906 39.042969 77.585938 38.089844 74.484375 35.621094 L 74.484375 35.664062 C 74.484375 35.664062 75.816406 35.949219 76.253906 35.949219 L 76.292969 35.949219 L 76.292969 35.910156 C 76.292969 35.910156 76.234375 35.867188 76.121094 35.820312 C 75.347656 35.457031 72.171875 33.890625 70.949219 32.160156 L 70.949219 32.203125 C 70.949219 32.203125 71.308594 32.328125 71.695312 32.453125 C 71.882812 32.515625 72.082031 32.578125 72.246094 32.628906 C 72.40625 32.679688 72.53125 32.703125 72.582031 32.703125 L 72.621094 32.703125 L 72.621094 32.664062 C 72.621094 32.664062 72.582031 32.621094 72.5 32.574219 C 71.960938 32.175781 69.746094 30.304688 68.785156 26.246094 L 68.742188 26.246094 C 68.742188 26.246094 68.867188 26.421875 69.042969 26.609375 C 69.214844 26.796875 69.429688 27.011719 69.578125 27.085938 L 69.621094 27.085938 L 69.621094 27.042969 C 69.621094 27.042969 69.578125 26.917969 69.53125 26.707031 C 69.359375 26.054688 69.019531 24.601562 69.019531 23.421875 C 69.019531 23.269531 69.019531 23.121094 69.0625 22.996094 L 69.019531 22.996094 L 69.019531 23.039062 C 69.019531 23.039062 71.277344 25.253906 72.871094 26.421875 C 73.945312 27.199219 76.421875 28.152344 76.421875 28.152344 L 76.464844 28.152344 L 76.464844 28.109375 L 76.152344 27.46875 L 76.113281 27.46875 L 76.113281 27.511719 C 76.113281 27.511719 76.199219 27.554688 76.324219 27.597656 C 76.734375 27.789062 77.683594 28.25 78.792969 29.027344 C 79.800781 29.742188 80.761719 31.183594 81.207031 31.972656 L 81.25 31.972656 L 81.207031 31.972656 L 81.25 31.972656 Z M 81.160156 32.101562" fill="#286fb7"></path><path fill-rule="nonzero" fill-opacity="1" d="M 81.53125 36.070312 C 81.332031 35.746094 80.011719 33.878906 75.515625 31.433594 C 72.808594 29.980469 70.652344 26.105469 70.042969 24.363281 C 70.042969 24.363281 71.914062 29.378906 75.949219 31.46875 C 78.453125 32.773438 80.648438 34.566406 81.519531 35.792969 L 81.519531 36.070312 Z M 81.53125 36.070312" fill="#286fb7"></path><path fill-rule="nonzero" fill-opacity="1" d="M 81.53125 36.070312 L 81.574219 36.070312 C 81.363281 35.746094 80.042969 33.863281 75.53125 31.433594 C 72.851562 29.980469 70.683594 26.105469 70.074219 24.363281 L 70.03125 24.363281 C 70.03125 24.363281 71.914062 29.390625 75.949219 31.484375 C 78.453125 32.800781 80.648438 34.578125 81.507812 35.808594 L 81.550781 35.808594 L 81.507812 35.808594 L 81.507812 36.082031 L 81.589844 36.082031 L 81.550781 36.082031 L 81.589844 36.082031 L 81.550781 35.808594 C 80.675781 34.566406 78.484375 32.785156 75.980469 31.46875 C 73.960938 30.429688 72.488281 28.652344 71.519531 27.148438 C 71.03125 26.382812 70.671875 25.691406 70.433594 25.191406 C 70.308594 24.941406 70.222656 24.738281 70.171875 24.589844 C 70.109375 24.453125 70.074219 24.375 70.074219 24.375 L 70.03125 24.375 L 70.03125 24.417969 C 70.640625 26.171875 72.796875 30.046875 75.515625 31.511719 C 80.011719 33.945312 81.332031 35.8125 81.519531 36.136719 L 81.5625 36.136719 L 81.5625 36.09375 L 81.519531 36.09375 Z M 81.53125 36.070312" fill="#286fb7"></path><path fill-rule="nonzero" fill-opacity="1" d="M 70.847656 26.113281 L 70.785156 24.960938 Z M 70.847656 26.113281" fill="#286fb7"></path><path fill-rule="nonzero" fill-opacity="1" d="M 70.761719 24.957031 L 70.824219 26.113281 L 70.875 26.113281 L 70.8125 24.957031 Z M 70.761719 24.957031" fill="#286fb7"></path><path fill-rule="nonzero" fill-opacity="1" d="M 71.613281 27.363281 L 71.464844 25.605469 Z M 71.613281 27.363281" fill="#286fb7"></path><path fill-rule="nonzero" fill-opacity="1" d="M 71.433594 25.601562 L 71.597656 27.371094 L 71.636719 27.371094 L 71.5 25.601562 Z M 71.433594 25.601562" fill="#286fb7"></path><path fill-rule="nonzero" fill-opacity="1" d="M 72.351562 28.433594 L 72.179688 26.253906 Z M 72.351562 28.433594" fill="#286fb7"></path><path fill-rule="nonzero" fill-opacity="1" d="M 72.148438 26.261719 L 72.324219 28.441406 L 72.375 28.441406 L 72.203125 26.261719 Z M 72.148438 26.261719" fill="#286fb7"></path><path fill-rule="nonzero" fill-opacity="1" d="M 73.09375 29.335938 L 72.878906 26.832031 Z M 73.09375 29.335938" fill="#286fb7"></path><path fill-rule="nonzero" fill-opacity="1" d="M 72.859375 26.835938 L 73.070312 29.339844 L 73.121094 29.339844 L 72.910156 26.835938 Z M 72.859375 26.835938" fill="#286fb7"></path><path fill-rule="nonzero" fill-opacity="1" d="M 75.203125 31.109375 L 74.949219 28.140625 Z M 75.203125 31.109375" fill="#286fb7"></path><path fill-rule="nonzero" fill-opacity="1" d="M 74.933594 28.140625 L 75.183594 31.109375 L 75.222656 31.109375 L 74.988281 28.128906 L 74.9375 28.128906 Z M 74.933594 28.140625" fill="#286fb7"></path><path fill-rule="nonzero" fill-opacity="1" d="M 73.796875 29.988281 L 73.574219 27.332031 Z M 73.796875 29.988281" fill="#286fb7"></path><path fill-rule="nonzero" fill-opacity="1" d="M 73.554688 27.339844 L 73.777344 29.996094 L 73.828125 29.996094 L 73.601562 27.339844 Z M 73.554688 27.339844" fill="#286fb7"></path><path fill-rule="nonzero" fill-opacity="1" d="M 74.507812 30.722656 L 74.253906 27.742188 Z M 74.507812 30.722656" fill="#286fb7"></path><path fill-rule="nonzero" fill-opacity="1" d="M 74.238281 27.746094 L 74.5 30.730469 L 74.542969 30.730469 L 74.304688 27.746094 Z M 74.238281 27.746094" fill="#286fb7"></path><path fill-rule="nonzero" fill-opacity="1" d="M 75.882812 31.46875 L 75.636719 28.496094 Z M 75.882812 31.46875" fill="#286fb7"></path><path fill-rule="nonzero" fill-opacity="1" d="M 75.617188 28.503906 L 75.867188 31.484375 L 75.910156 31.484375 L 75.671875 28.503906 Z M 75.617188 28.503906" fill="#286fb7"></path><path fill-rule="nonzero" fill-opacity="1" d="M 76.578125 31.910156 L 76.308594 28.75 Z M 76.578125 31.910156" fill="#286fb7"></path><path fill-rule="nonzero" fill-opacity="1" d="M 76.289062 28.761719 L 76.5625 31.921875 L 76.601562 31.921875 L 76.34375 28.761719 Z M 76.289062 28.761719" fill="#286fb7"></path><path fill-rule="nonzero" fill-opacity="1" d="M 77.273438 32.328125 L 76.953125 28.542969 Z M 77.273438 32.328125" fill="#286fb7"></path><path fill-rule="nonzero" fill-opacity="1" d="M 76.925781 28.539062 L 77.25 32.308594 L 77.300781 32.308594 L 76.976562 28.539062 Z M 76.925781 28.539062" fill="#286fb7"></path><path fill-rule="nonzero" fill-opacity="1" d="M 77.972656 32.832031 L 77.636719 28.898438 Z M 77.972656 32.832031" fill="#286fb7"></path><path fill-rule="nonzero" fill-opacity="1" d="M 77.617188 28.894531 L 77.949219 32.832031 L 78.003906 32.832031 L 77.664062 28.882812 L 77.617188 28.882812 Z M 77.617188 28.894531" fill="#286fb7"></path><path fill-rule="nonzero" fill-opacity="1" d="M 78.667969 33.316406 L 78.332031 29.320312 Z M 78.667969 33.316406" fill="#286fb7"></path><path fill-rule="nonzero" fill-opacity="1" d="M 78.304688 29.324219 L 78.640625 33.335938 L 78.691406 33.335938 L 78.359375 29.335938 L 78.304688 29.335938 Z M 78.304688 29.324219" fill="#286fb7"></path><path fill-rule="nonzero" fill-opacity="1" d="M 79.351562 33.78125 L 79.027344 29.832031 Z M 79.351562 33.78125" fill="#286fb7"></path><path fill-rule="nonzero" fill-opacity="1" d="M 79.003906 29.835938 L 79.328125 33.78125 L 79.378906 33.78125 L 79.054688 29.835938 Z M 79.003906 29.835938" fill="#286fb7"></path><path fill-rule="nonzero" fill-opacity="1" d="M 80.082031 34.410156 L 79.746094 30.539062 Z M 80.082031 34.410156" fill="#286fb7"></path><path fill-rule="nonzero" fill-opacity="1" d="M 79.722656 30.53125 L 80.058594 34.433594 L 80.109375 34.433594 L 79.773438 30.542969 L 79.722656 30.542969 Z M 79.722656 30.53125" fill="#286fb7"></path><path fill-rule="nonzero" fill-opacity="1" d="M 80.785156 35.066406 L 80.460938 31.296875 Z M 80.785156 35.066406" fill="#286fb7"></path><path fill-rule="nonzero" fill-opacity="1" d="M 80.4375 31.285156 L 80.761719 35.0625 L 80.808594 35.0625 L 80.484375 31.285156 Z M 80.4375 31.285156" fill="#286fb7"></path><path fill-rule="nonzero" fill-opacity="1" d="M 81.503906 35.945312 L 81.203125 32.4375 Z M 81.503906 35.945312" fill="#286fb7"></path><path fill-rule="nonzero" fill-opacity="1" d="M 81.179688 32.449219 L 81.476562 35.957031 L 81.527344 35.957031 L 81.230469 32.449219 Z M 81.179688 32.449219" fill="#286fb7"></path><path fill-rule="nonzero" fill-opacity="1" d="M 68.992188 23.207031 C 68.992188 23.332031 68.992188 23.460938 68.992188 23.585938 C 68.992188 24.773438 69.328125 26.230469 69.492188 26.867188 C 69.554688 27.09375 69.578125 27.21875 69.578125 27.21875 L 69.578125 27.261719 L 69.535156 27.261719 C 69.375 27.1875 69.164062 26.972656 68.988281 26.785156 C 68.886719 26.671875 68.8125 26.558594 68.75 26.496094 C 69.722656 30.480469 71.917969 32.324219 72.453125 32.726562 C 72.527344 32.777344 72.566406 32.800781 72.566406 32.800781 L 72.566406 32.882812 C 72.503906 32.882812 72.378906 32.84375 72.214844 32.796875 C 72.054688 32.753906 71.855469 32.695312 71.667969 32.621094 C 71.378906 32.535156 71.117188 32.445312 70.996094 32.394531 C 72.242188 34.113281 75.355469 35.640625 76.128906 36.003906 C 76.242188 36.054688 76.304688 36.082031 76.304688 36.082031 L 76.304688 36.121094 L 76.261719 36.164062 C 75.898438 36.164062 74.890625 35.964844 74.578125 35.902344 C 77.667969 38.308594 80.785156 39.261719 81.519531 39.460938 C 81.582031 39.460938 81.632812 39.503906 81.65625 39.503906 L 81.65625 39.238281 C 79.117188 38.863281 75.128906 36.207031 75.128906 36.207031 L 75.128906 36.164062 L 75.167969 36.164062 C 75.691406 36.300781 76.078125 36.339844 76.351562 36.339844 C 76.589844 36.339844 76.726562 36.296875 76.800781 36.289062 C 72.242188 33.921875 71.394531 32.71875 71.394531 32.71875 L 71.394531 32.675781 L 71.433594 32.675781 C 72.046875 32.988281 72.753906 33.078125 73.078125 33.089844 C 73.121094 33.089844 73.128906 33.089844 73.140625 33.089844 C 70.425781 31.621094 68.941406 26.996094 68.941406 26.996094 L 68.941406 26.957031 L 68.984375 26.957031 C 69.371094 27.371094 69.667969 27.519531 69.769531 27.570312 C 69.070312 24.863281 69.035156 23.382812 69.035156 23.382812 L 69.117188 23.382812 C 69.117188 23.425781 69.230469 23.558594 69.417969 23.761719 C 69.566406 23.933594 69.789062 24.160156 70.0625 24.425781 L 70.105469 24.425781 C 70.105469 24.425781 70.105469 24.464844 70.148438 24.488281 C 70.1875 24.488281 70.1875 24.527344 70.210938 24.550781 C 70.394531 24.710938 70.597656 24.902344 70.820312 25.101562 L 70.820312 25.039062 L 70.863281 25.039062 L 70.863281 25.136719 C 71.0625 25.3125 71.273438 25.488281 71.496094 25.675781 L 71.539062 25.675781 L 71.539062 25.71875 C 72.011719 26.109375 72.546875 26.507812 73.144531 26.910156 C 74.429688 27.789062 75.738281 28.300781 76.3125 28.5 C 76.4375 28.550781 76.523438 28.578125 76.574219 28.589844 L 76.511719 28.152344 L 76.550781 28.152344 C 76.550781 28.152344 76.9375 28.191406 78.734375 29.492188 C 79.46875 30.03125 80.078125 30.746094 80.550781 31.398438 L 80.550781 31.4375 C 80.839844 31.828125 81.0625 32.203125 81.226562 32.492188 L 81.226562 32.242188 C 80.765625 31.453125 79.816406 30.023438 78.808594 29.308594 C 77.699219 28.53125 76.738281 28.054688 76.339844 27.878906 C 76.277344 27.835938 76.214844 27.828125 76.179688 27.804688 L 76.476562 28.394531 L 76.476562 28.433594 L 76.4375 28.433594 C 76.4375 28.433594 73.957031 27.496094 72.898438 26.71875 C 71.414062 25.640625 69.359375 23.648438 69.070312 23.359375" fill="#1f60ad"></path><path fill-rule="nonzero" fill-opacity="1" d="M 68.964844 23.140625 L 68.964844 23.179688 C 68.964844 23.304688 68.964844 23.457031 68.964844 23.609375 C 68.964844 25.046875 69.449219 26.878906 69.535156 27.203125 C 69.386719 27.117188 69.210938 26.929688 69.050781 26.753906 C 68.964844 26.664062 68.886719 26.566406 68.839844 26.503906 C 68.777344 26.425781 68.75 26.390625 68.75 26.390625 L 68.710938 26.390625 L 68.710938 26.433594 C 69.695312 30.617188 72.023438 32.484375 72.484375 32.824219 C 72.421875 32.78125 72.347656 32.78125 72.25 32.761719 C 72.011719 32.6875 71.6875 32.585938 71.425781 32.484375 C 71.164062 32.398438 70.964844 32.335938 70.964844 32.335938 L 70.925781 32.335938 L 70.925781 32.375 C 72.207031 34.179688 75.558594 35.796875 76.195312 36.085938 C 75.957031 36.085938 75.597656 36.011719 75.261719 35.960938 C 74.875 35.886719 74.550781 35.8125 74.550781 35.8125 L 74.507812 35.8125 L 74.507812 35.851562 C 78.074219 38.683594 81.699219 39.523438 81.699219 39.523438 L 81.742188 39.523438 L 81.742188 39.128906 C 81.699219 39.128906 81.664062 39.128906 81.628906 39.128906 C 80.382812 38.914062 78.8125 38.175781 77.527344 37.484375 C 77.480469 37.445312 77.429688 37.4375 77.378906 37.410156 C 76.78125 37.085938 76.257812 36.773438 75.871094 36.535156 C 75.671875 36.410156 75.496094 36.296875 75.386719 36.234375 C 75.34375 36.191406 75.335938 36.191406 75.324219 36.183594 C 75.785156 36.296875 76.132812 36.320312 76.382812 36.320312 C 76.742188 36.320312 76.894531 36.257812 76.894531 36.257812 L 76.933594 36.257812 L 76.933594 36.214844 C 74.628906 35.011719 73.269531 34.125 72.484375 33.523438 C 72.085938 33.222656 71.835938 32.996094 71.6875 32.84375 C 71.625 32.78125 71.589844 32.730469 71.550781 32.695312 C 72.359375 33.082031 73.285156 33.082031 73.285156 33.082031 L 73.324219 33.082031 L 73.324219 33.042969 C 71.953125 32.339844 70.882812 30.824219 70.160156 29.46875 C 69.796875 28.792969 69.511719 28.152344 69.335938 27.6875 C 69.273438 27.539062 69.226562 27.402344 69.175781 27.300781 C 69.175781 27.238281 69.132812 27.175781 69.125 27.136719 C 69.125 27.085938 69.082031 27.050781 69.082031 27.023438 C 69.53125 27.488281 69.855469 27.589844 69.855469 27.589844 L 69.898438 27.589844 L 69.898438 27.546875 C 69.8125 27.195312 69.734375 26.871094 69.660156 26.558594 C 69.460938 25.667969 69.335938 24.953125 69.273438 24.425781 C 69.210938 24.0625 69.1875 23.800781 69.175781 23.613281 C 69.175781 23.535156 69.175781 23.472656 69.175781 23.421875 C 69.226562 23.484375 69.3125 23.597656 69.4375 23.738281 C 69.597656 23.925781 69.835938 24.164062 70.148438 24.464844 C 70.148438 24.421875 70.105469 24.414062 70.105469 24.390625 C 69.832031 24.125 69.621094 23.898438 69.457031 23.722656 C 69.269531 23.523438 69.171875 23.386719 69.160156 23.335938 L 69.117188 23.335938 L 69.074219 23.378906 C 69.074219 23.378906 69.117188 24.855469 69.8125 27.5625 C 69.710938 27.515625 69.410156 27.363281 69.027344 26.949219 L 68.984375 26.949219 L 68.984375 26.992188 C 68.984375 26.992188 70.46875 31.617188 73.195312 33.070312 C 73.15625 33.070312 73.144531 33.070312 73.121094 33.070312 C 72.808594 33.027344 72.085938 32.96875 71.476562 32.65625 L 71.433594 32.65625 L 71.433594 32.699219 C 71.433594 32.699219 72.28125 33.914062 76.84375 36.28125 C 76.769531 36.324219 76.632812 36.332031 76.394531 36.332031 C 76.121094 36.332031 75.734375 36.292969 75.210938 36.15625 L 75.167969 36.15625 L 75.167969 36.199219 C 75.167969 36.199219 79.15625 38.84375 81.699219 39.21875 L 81.699219 39.496094 C 81.65625 39.496094 81.625 39.496094 81.5625 39.453125 C 80.828125 39.253906 77.710938 38.3125 74.621094 35.894531 C 74.933594 35.957031 75.941406 36.171875 76.304688 36.171875 L 76.34375 36.128906 L 76.34375 36.085938 C 76.34375 36.085938 76.28125 36.046875 76.171875 36.011719 C 75.398438 35.648438 72.292969 34.105469 71.035156 32.402344 C 71.160156 32.445312 71.421875 32.539062 71.710938 32.628906 C 71.894531 32.691406 72.09375 32.753906 72.257812 32.804688 C 72.417969 32.851562 72.542969 32.878906 72.605469 32.878906 L 72.605469 32.835938 C 72.605469 32.835938 72.554688 32.792969 72.480469 32.75 C 71.945312 32.359375 69.753906 30.519531 68.78125 26.53125 C 68.832031 26.59375 68.929688 26.707031 69.015625 26.808594 C 69.191406 27.007812 69.402344 27.222656 69.566406 27.296875 L 69.605469 27.296875 L 69.605469 27.253906 C 69.605469 27.253906 69.566406 27.117188 69.507812 26.902344 C 69.34375 26.265625 69.007812 24.8125 69.007812 23.621094 C 69.007812 23.496094 69.007812 23.371094 69.007812 23.242188 C 69.296875 23.519531 71.351562 25.523438 72.835938 26.601562 C 73.894531 27.378906 76.386719 28.320312 76.386719 28.320312 L 76.429688 28.320312 L 76.429688 28.277344 L 76.128906 27.703125 C 76.171875 27.703125 76.214844 27.742188 76.289062 27.765625 C 76.691406 27.953125 77.648438 28.417969 78.757812 29.207031 C 79.769531 29.90625 80.714844 31.347656 81.175781 32.136719 L 81.175781 32.390625 C 81.015625 32.089844 80.789062 31.726562 80.515625 31.324219 L 80.515625 31.410156 C 80.800781 31.824219 81.027344 32.214844 81.1875 32.503906 L 81.230469 32.503906 L 81.230469 32.460938 L 81.1875 32.121094 L 81.148438 32.121094 L 81.1875 32.121094 L 81.148438 32.121094 L 81.1875 32.121094 C 80.726562 31.332031 79.78125 29.890625 78.757812 29.175781 C 78.257812 28.824219 77.8125 28.539062 77.414062 28.3125 C 76.613281 27.859375 76.066406 27.648438 76.066406 27.648438 L 76.023438 27.648438 L 76.023438 27.6875 L 76.324219 28.277344 C 76.25 28.238281 76.125 28.203125 75.960938 28.140625 C 75.226562 27.839844 73.621094 27.164062 72.835938 26.585938 C 72.039062 26.007812 71.078125 25.15625 70.304688 24.457031 C 69.929688 24.105469 69.59375 23.792969 69.359375 23.566406 C 69.121094 23.328125 68.984375 23.191406 68.984375 23.191406 L 68.941406 23.191406 Z M 68.964844 23.140625" fill="#10649e"></path><path fill-rule="nonzero" fill-opacity="1" d="M 70.085938 24.414062 C 70.085938 24.457031 70.125 24.476562 70.125 24.515625 C 70.324219 24.691406 70.523438 24.878906 70.761719 25.089844 L 70.761719 25.027344 C 70.539062 24.828125 70.339844 24.652344 70.152344 24.476562 C 70.109375 24.433594 70.109375 24.433594 70.089844 24.414062" fill="#10649e"></path><path fill-rule="nonzero" fill-opacity="1" d="M 70.808594 25.066406 L 70.808594 25.128906 C 71.007812 25.304688 71.21875 25.46875 71.441406 25.65625 L 71.441406 25.605469 C 71.21875 25.417969 71.007812 25.230469 70.808594 25.066406" fill="#10649e"></path><path fill-rule="nonzero" fill-opacity="1" d="M 71.488281 25.632812 L 71.488281 25.695312 C 71.949219 26.058594 72.484375 26.460938 73.070312 26.863281 C 74.777344 28.027344 76.535156 28.554688 76.535156 28.554688 L 76.578125 28.554688 L 76.578125 28.511719 L 76.535156 28.261719 L 76.496094 28.074219 C 76.617188 28.113281 77.117188 28.285156 78.636719 29.390625 C 79.359375 29.929688 79.972656 30.640625 80.445312 31.292969 L 80.445312 31.253906 L 80.484375 31.253906 C 80.011719 30.589844 79.402344 29.875 78.679688 29.347656 C 76.871094 28.019531 76.5 28.007812 76.484375 28.007812 L 76.484375 28.046875 L 76.546875 28.488281 C 76.5 28.488281 76.410156 28.4375 76.285156 28.398438 C 75.699219 28.1875 74.390625 27.683594 73.121094 26.808594 C 72.523438 26.394531 71.976562 25.992188 71.515625 25.617188" fill="#10649e"></path><path fill-rule="nonzero" fill-opacity="1" d="M 71.042969 26.453125 C 71.207031 26.742188 71.394531 27.054688 71.582031 27.355469 L 71.582031 27.316406 C 71.378906 27.015625 71.207031 26.726562 71.042969 26.449219" fill="#1f60ad"></path><path fill-rule="nonzero" fill-opacity="1" d="M 71.617188 27.371094 C 71.855469 27.722656 72.089844 28.085938 72.351562 28.4375 L 72.351562 28.359375 C 72.089844 28.023438 71.855469 27.695312 71.640625 27.371094" fill="#1f60ad"></path><path fill-rule="nonzero" fill-opacity="1" d="M 72.378906 28.417969 L 72.335938 28.417969 C 73.226562 29.621094 74.316406 30.746094 75.519531 31.398438 C 79.769531 33.691406 81.183594 35.484375 81.507812 35.960938 L 81.507812 35.730469 C 81.332031 35.492188 81.113281 35.230469 80.839844 34.953125 L 80.839844 35.042969 L 80.757812 35.042969 L 80.757812 34.90625 C 80.558594 34.703125 80.34375 34.492188 80.113281 34.277344 L 80.113281 34.390625 L 80.070312 34.390625 L 80.070312 34.242188 C 79.855469 34.050781 79.632812 33.863281 79.394531 33.675781 L 79.394531 33.75 L 79.351562 33.75 L 79.351562 33.640625 C 79.144531 33.476562 78.929688 33.3125 78.703125 33.148438 L 78.703125 33.289062 L 78.621094 33.289062 L 78.621094 33.101562 C 78.410156 32.949219 78.199219 32.8125 77.972656 32.660156 L 77.972656 32.785156 L 77.929688 32.785156 L 77.929688 32.625 C 77.71875 32.484375 77.507812 32.347656 77.285156 32.210938 L 77.285156 32.273438 L 77.242188 32.273438 L 77.242188 32.171875 C 77.03125 32.035156 76.804688 31.910156 76.589844 31.785156 L 76.589844 31.859375 L 76.507812 31.859375 L 76.507812 31.757812 C 76.304688 31.644531 76.105469 31.535156 75.894531 31.433594 C 75.894531 31.433594 75.855469 31.433594 75.855469 31.433594 L 75.8125 31.433594 L 75.8125 31.390625 C 75.589844 31.265625 75.371094 31.140625 75.164062 31.015625 L 75.164062 31.058594 L 75.125 31.058594 L 75.125 30.980469 C 74.898438 30.84375 74.679688 30.679688 74.464844 30.519531 L 74.464844 30.667969 L 74.421875 30.667969 L 74.378906 30.480469 C 74.15625 30.304688 73.945312 30.117188 73.730469 29.929688 L 73.691406 29.929688 L 73.691406 29.886719 C 73.457031 29.675781 73.230469 29.449219 73.023438 29.210938 L 73.023438 29.273438 L 73.023438 29.148438 C 72.769531 28.882812 72.546875 28.621094 72.335938 28.34375" fill="#1f60ad"></path><path fill-rule="nonzero" fill-opacity="1" d="M 70.035156 24.335938 C 70.644531 26.089844 72.800781 29.964844 75.503906 31.429688 C 80.003906 33.875 81.335938 35.730469 81.523438 36.054688 L 81.566406 36.054688 L 81.609375 36.011719 L 81.566406 36.011719 L 81.609375 36.011719 L 81.566406 36.011719 L 81.609375 36.011719 L 81.566406 35.738281 C 81.566406 35.738281 81.566406 35.695312 81.523438 35.695312 L 81.566406 35.898438 L 81.523438 35.898438 L 81.523438 35.9375 C 81.199219 35.460938 79.78125 33.667969 75.53125 31.375 C 74.335938 30.722656 73.238281 29.597656 72.339844 28.394531 C 72.078125 28.042969 71.828125 27.691406 71.605469 27.328125 C 71.417969 27.027344 71.230469 26.714844 71.070312 26.425781 C 71.230469 26.699219 71.40625 26.988281 71.605469 27.289062 L 71.605469 27.191406 C 71.5625 27.148438 71.5625 27.128906 71.542969 27.089844 C 71.292969 26.714844 71.09375 26.351562 70.90625 26.023438 L 70.90625 26.074219 L 70.867188 26.074219 L 70.867188 25.925781 C 70.703125 25.636719 70.566406 25.359375 70.46875 25.132812 C 70.34375 24.882812 70.253906 24.683594 70.191406 24.546875 C 70.191406 24.503906 70.191406 24.503906 70.152344 24.484375 C 70.152344 24.441406 70.109375 24.40625 70.109375 24.382812 L 70.066406 24.320312 L 70.027344 24.320312 Z M 70.035156 24.335938" fill="#10649e"></path><path fill-rule="nonzero" fill-opacity="1" d="M 71.625 27.304688 L 71.625 27.367188 C 71.835938 27.695312 72.074219 28.019531 72.335938 28.359375 L 72.335938 28.269531 C 72.085938 27.945312 71.863281 27.617188 71.652344 27.304688" fill="#10649e"></path><path fill-rule="nonzero" fill-opacity="1" d="M 72.371094 28.335938 L 72.371094 28.410156 C 72.582031 28.6875 72.804688 28.960938 73.042969 29.222656 L 73.042969 29.148438 C 72.792969 28.890625 72.570312 28.609375 72.355469 28.335938" fill="#10649e"></path><path fill-rule="nonzero" fill-opacity="1" d="M 73.101562 29.203125 L 73.101562 29.277344 C 73.324219 29.503906 73.535156 29.730469 73.773438 29.941406 L 73.773438 29.878906 C 73.535156 29.65625 73.3125 29.429688 73.101562 29.203125" fill="#10649e"></path><path fill-rule="nonzero" fill-opacity="1" d="M 73.820312 29.925781 L 73.820312 29.988281 C 74.03125 30.175781 74.242188 30.363281 74.46875 30.539062 L 74.46875 30.476562 C 74.242188 30.300781 74.03125 30.113281 73.820312 29.925781" fill="#10649e"></path><path fill-rule="nonzero" fill-opacity="1" d="M 74.515625 30.511719 L 74.515625 30.578125 C 74.730469 30.738281 74.953125 30.886719 75.175781 31.039062 L 75.175781 30.976562 C 75.089844 30.925781 75.003906 30.867188 74.914062 30.804688 C 74.792969 30.714844 74.652344 30.613281 74.53125 30.511719" fill="#10649e"></path><path fill-rule="nonzero" fill-opacity="1" d="M 75.21875 31.015625 L 75.21875 31.0625 C 75.429688 31.203125 75.644531 31.328125 75.867188 31.441406 L 75.867188 31.390625 C 75.65625 31.277344 75.445312 31.152344 75.230469 31.015625" fill="#10649e"></path><path fill-rule="nonzero" fill-opacity="1" d="M 75.90625 31.421875 L 75.90625 31.46875 C 75.90625 31.46875 75.945312 31.46875 75.945312 31.511719 C 76.15625 31.613281 76.34375 31.726562 76.554688 31.835938 L 76.554688 31.773438 C 76.371094 31.675781 76.171875 31.5625 75.984375 31.460938 C 75.941406 31.460938 75.941406 31.460938 75.921875 31.421875" fill="#10649e"></path><path fill-rule="nonzero" fill-opacity="1" d="M 76.589844 31.789062 L 76.589844 31.835938 C 76.8125 31.964844 77.027344 32.101562 77.25 32.226562 L 77.25 32.164062 C 77.039062 32.039062 76.828125 31.914062 76.601562 31.789062" fill="#10649e"></path><path fill-rule="nonzero" fill-opacity="1" d="M 77.289062 32.199219 L 77.289062 32.25 C 77.511719 32.386719 77.722656 32.523438 77.9375 32.660156 L 77.9375 32.613281 C 77.722656 32.472656 77.511719 32.335938 77.289062 32.199219" fill="#10649e"></path><path fill-rule="nonzero" fill-opacity="1" d="M 77.980469 32.644531 L 77.980469 32.707031 C 78.207031 32.84375 78.417969 32.996094 78.628906 33.140625 L 78.628906 33.082031 C 78.417969 32.945312 78.207031 32.792969 77.980469 32.644531" fill="#10649e"></path><path fill-rule="nonzero" fill-opacity="1" d="M 78.671875 33.117188 L 78.671875 33.179688 C 78.894531 33.347656 79.121094 33.511719 79.320312 33.675781 L 79.320312 33.609375 C 79.105469 33.445312 78.894531 33.28125 78.671875 33.117188" fill="#10649e"></path><path fill-rule="nonzero" fill-opacity="1" d="M 79.367188 33.644531 L 79.367188 33.707031 C 79.617188 33.898438 79.828125 34.085938 80.042969 34.273438 L 80.042969 34.210938 C 79.828125 34.023438 79.605469 33.835938 79.367188 33.644531" fill="#10649e"></path><path fill-rule="nonzero" fill-opacity="1" d="M 80.089844 34.242188 L 80.089844 34.304688 C 80.339844 34.523438 80.550781 34.730469 80.753906 34.933594 L 80.753906 34.855469 C 80.550781 34.65625 80.328125 34.457031 80.089844 34.242188" fill="#10649e"></path><path fill-rule="nonzero" fill-opacity="1" d="M 80.792969 34.90625 L 80.792969 34.988281 C 81.066406 35.261719 81.292969 35.527344 81.464844 35.765625 L 81.464844 35.675781 C 81.28125 35.433594 81.054688 35.1875 80.792969 34.90625" fill="#10649e"></path><path fill-rule="nonzero" fill-opacity="1" d="M 70.761719 24.957031 L 70.761719 25.097656 L 70.8125 25.949219 L 70.8125 26.113281 L 70.863281 26.113281 L 70.863281 26.050781 L 70.800781 25.210938 L 70.800781 24.960938 L 70.75 24.960938 Z M 70.761719 24.957031" fill="#10649e"></path><path fill-rule="nonzero" fill-opacity="1" d="M 71.441406 25.601562 L 71.59375 27.230469 L 71.59375 27.402344 L 71.632812 27.402344 L 71.632812 27.339844 L 71.523438 25.824219 L 71.523438 25.632812 L 71.480469 25.632812 Z M 71.441406 25.601562" fill="#10649e"></path><path fill-rule="nonzero" fill-opacity="1" d="M 72.175781 26.261719 L 72.132812 26.261719 L 72.308594 28.261719 L 72.308594 28.441406 L 72.347656 28.441406 L 72.347656 28.351562 L 72.1875 26.347656 L 72.1875 26.277344 Z M 72.175781 26.261719" fill="#10649e"></path><path fill-rule="nonzero" fill-opacity="1" d="M 72.878906 26.835938 L 72.839844 26.835938 L 73.027344 29.140625 L 73.027344 29.339844 L 73.109375 29.339844 L 73.109375 29.203125 L 72.898438 26.847656 Z M 72.878906 26.835938" fill="#10649e"></path><path fill-rule="nonzero" fill-opacity="1" d="M 74.953125 28.140625 L 74.910156 28.140625 L 75.148438 30.984375 L 75.148438 31.109375 L 75.230469 31.109375 L 75.230469 31.007812 L 75.007812 28.273438 L 75.007812 28.125 L 74.964844 28.125 Z M 74.953125 28.140625" fill="#10649e"></path><path fill-rule="nonzero" fill-opacity="1" d="M 73.574219 27.339844 L 73.617188 27.339844 Z M 73.824219 29.921875 L 73.597656 27.339844 Z M 73.824219 29.921875" fill="#73a5c1"></path><path fill-rule="nonzero" fill-opacity="1" d="M 73.574219 27.339844 L 73.53125 27.339844 L 73.757812 29.871094 L 73.757812 29.996094 L 73.839844 29.996094 L 73.839844 29.933594 L 73.617188 27.351562 L 73.574219 27.351562 Z M 73.574219 27.339844" fill="#10649e"></path><path fill-rule="nonzero" fill-opacity="1" d="M 74.238281 27.746094 L 74.476562 30.480469 L 74.476562 30.542969 L 74.515625 30.730469 L 74.515625 30.515625 L 74.292969 27.746094 Z M 74.238281 27.746094" fill="#10649e"></path><path fill-rule="nonzero" fill-opacity="1" d="M 75.636719 28.503906 L 75.679688 28.503906 Z M 75.914062 31.410156 L 75.664062 28.492188 Z M 75.914062 31.410156" fill="#80b1c7"></path><path fill-rule="nonzero" fill-opacity="1" d="M 75.636719 28.503906 L 75.597656 28.503906 L 75.832031 31.386719 L 75.832031 31.488281 L 75.882812 31.488281 L 75.882812 31.425781 L 75.632812 28.507812 L 75.59375 28.507812 Z M 75.636719 28.503906" fill="#10649e"></path><path fill-rule="nonzero" fill-opacity="1" d="M 76.3125 28.75 L 76.351562 28.75 Z M 76.585938 31.78125 L 76.335938 28.75 Z M 76.585938 31.78125" fill="#80b1c7"></path><path fill-rule="nonzero" fill-opacity="1" d="M 76.3125 28.75 L 76.269531 28.75 L 76.53125 31.746094 L 76.53125 31.90625 L 76.574219 31.90625 L 76.574219 31.78125 Z M 76.3125 28.75" fill="#10649e"></path><path fill-rule="nonzero" fill-opacity="1" d="M 76.925781 28.539062 L 77.238281 32.171875 L 77.238281 32.308594 L 77.320312 32.308594 L 77.320312 32.195312 L 77.007812 28.539062 Z M 76.925781 28.539062" fill="#10649e"></path><path fill-rule="nonzero" fill-opacity="1" d="M 77.617188 28.894531 L 77.9375 32.605469 L 77.9375 32.832031 L 77.976562 32.832031 L 77.976562 32.644531 L 77.652344 28.882812 L 77.601562 28.882812 Z M 77.617188 28.894531" fill="#10649e"></path><path fill-rule="nonzero" fill-opacity="1" d="M 78.304688 29.324219 L 78.621094 33.085938 L 78.621094 33.335938 L 78.703125 33.335938 L 78.703125 33.121094 L 78.398438 29.335938 L 78.34375 29.335938 Z M 78.304688 29.324219" fill="#10649e"></path><path fill-rule="nonzero" fill-opacity="1" d="M 79.003906 29.835938 L 79.316406 33.605469 L 79.316406 33.78125 L 79.363281 33.78125 L 79.363281 33.644531 L 79.054688 29.835938 Z M 79.003906 29.835938" fill="#10649e"></path><path fill-rule="nonzero" fill-opacity="1" d="M 79.742188 30.542969 L 79.785156 30.542969 Z M 80.078125 34.242188 L 79.769531 30.53125 Z M 80.078125 34.242188" fill="#80b1c7"></path><path fill-rule="nonzero" fill-opacity="1" d="M 79.742188 30.53125 L 79.699219 30.53125 L 80.011719 34.195312 L 80.011719 34.433594 L 80.0625 34.433594 L 80.0625 34.257812 L 79.726562 30.542969 Z M 79.742188 30.53125" fill="#10649e"></path><path fill-rule="nonzero" fill-opacity="1" d="M 80.472656 31.285156 L 80.433594 31.285156 L 80.742188 34.863281 L 80.742188 35.0625 L 80.828125 35.0625 L 80.828125 34.910156 L 80.539062 31.410156 L 80.539062 31.285156 Z M 80.472656 31.285156" fill="#10649e"></path><path fill-rule="nonzero" fill-opacity="1" d="M 81.199219 32.441406 L 81.476562 35.660156 L 81.476562 35.949219 L 81.558594 35.949219 L 81.558594 35.761719 L 81.285156 32.566406 L 81.285156 32.441406 Z M 81.199219 32.441406" fill="#10649e"></path></svg>