<svg version="1.0" preserveAspectRatio="xMidYMid meet" height="200" viewBox="0 0 450 149.999998" zoomAndPan="magnify" width="600" xmlns:xlink="http://www.w3.org/1999/xlink" xmlns="http://www.w3.org/2000/svg"><defs><clipPath id="9193421c80"><path clip-rule="nonzero" d="M 282 25 L 306.707031 25 L 306.707031 54 L 282 54 Z M 282 25"></path></clipPath><clipPath id="61e10231af"><path clip-rule="nonzero" d="M 231 18.695312 L 253 18.695312 L 253 41 L 231 41 Z M 231 18.695312"></path></clipPath><clipPath id="3fa6084236"><path clip-rule="nonzero" d="M 143.210938 40 L 254 40 L 254 131.195312 L 143.210938 131.195312 Z M 143.210938 40"></path></clipPath></defs><g clip-path="url(#9193421c80)"><path fill-rule="nonzero" fill-opacity="1" d="M 306.710938 32.300781 L 306.710938 35.859375 C 306.710938 43.445312 304.058594 45.863281 295.015625 49.15625 L 282.101562 53.59375 L 282.101562 30.855469 L 293.75 26.84375 C 301.394531 24.257812 306.710938 25.433594 306.710938 32.300781 Z M 293.753906 31.625 L 289.769531 32.992188 L 289.730469 45.957031 L 294.019531 44.484375 C 297.839844 42.988281 298.421875 41.613281 298.421875 38.75 L 298.421875 35.203125 C 298.167969 32.3125 297.289062 30.535156 293.753906 31.625 Z M 293.753906 31.625" fill="#ed1d24"></path></g><path fill-rule="nonzero" fill-opacity="1" d="M 279.464844 31.761719 L 279.464844 54.5 L 271.8125 57.136719 L 271.8125 48.019531 L 264.90625 50.402344 L 264.871094 59.53125 L 257.070312 62.21875 L 257.070312 39.484375 L 264.910156 36.78125 L 264.875 45.59375 L 271.8125 43.210938 L 271.8125 34.402344 Z M 279.464844 31.761719" fill="#ed1d24"></path><g clip-path="url(#61e10231af)"><path fill-rule="nonzero" fill-opacity="1" d="M 242.023438 40.636719 C 248.085938 40.636719 253 35.734375 253 29.667969 C 253 23.609375 248.085938 18.699219 242.023438 18.699219 C 235.960938 18.699219 231.046875 23.609375 231.046875 29.667969 C 231.046875 35.734375 235.960938 40.636719 242.023438 40.636719" fill="#ed1d24"></path></g><g clip-path="url(#3fa6084236)"><path fill-rule="nonzero" fill-opacity="1" d="M 253.0625 40.867188 L 227.320312 49.78125 L 227.320312 60.40625 L 234.542969 57.855469 C 234.542969 57.855469 234.589844 85.792969 234.542969 87.25 C 234.542969 95.847656 224.863281 93.046875 221.972656 90.875 C 221.078125 90.210938 214.414062 85.578125 214.414062 85.578125 C 220.882812 83.28125 231 75 225.996094 63.746094 C 219.734375 52.273438 208.683594 56.027344 208.683594 56.027344 L 178.414062 66.605469 L 178.414062 77.035156 L 182.796875 75.5 L 182.796875 90.019531 L 163.289062 71.707031 L 143.214844 78.730469 L 143.210938 89.175781 L 149.265625 86.945312 L 149.265625 116.695312 L 143.300781 118.820312 L 143.300781 131.195312 L 166.152344 123.234375 L 166.152344 97.21875 L 180.558594 110.777344 L 180.558594 125.925781 L 216.617188 113.292969 L 216.617188 104.648438 C 221.214844 109.847656 231.324219 110.597656 237.851562 108.644531 C 245.925781 106.226562 253.074219 101.097656 253.074219 90.625 C 253.074219 86.882812 253.0625 40.867188 253.0625 40.867188 Z M 206.613281 67.691406 C 208.402344 67.632812 209.855469 69.480469 209.957031 71.308594 C 210.0625 73.160156 210.414062 75.851562 207.753906 77.097656 C 205.605469 77.835938 199.269531 80.203125 199.269531 80.203125 L 199.269531 70.132812 C 199.269531 70.132812 203.648438 68.574219 205.828125 67.835938 C 206.09375 67.738281 206.355469 67.695312 206.613281 67.691406 Z M 206.613281 67.691406" fill="#ed1d24"></path></g><path fill-rule="nonzero" fill-opacity="1" d="M 183.167969 95.765625 L 183.167969 122.339844 L 190.480469 119.789062 L 190.480469 93.214844 Z M 183.167969 95.765625" fill="#ffffff"></path><path fill-rule="nonzero" fill-opacity="1" d="M 207.246094 104.011719 C 210.691406 100.585938 214.25 97.363281 214.25 92.535156 C 214.25 86.144531 209.117188 85.4375 203.648438 87.339844 C 196.796875 89.726562 192.5625 94.507812 192.453125 102.605469 L 199.457031 100.136719 C 199.417969 97.496094 200.28125 94.589844 203.277344 93.546875 C 204.902344 92.976562 206.460938 93.371094 206.460938 95.207031 C 206.460938 99.765625 199.53125 104.046875 195.109375 110.375 C 193.011719 113.363281 192.539062 115.902344 192.539062 119.070312 L 214.03125 111.542969 L 214.03125 104.972656 L 201.925781 109.21875 C 203.3125 107.726562 205.335938 105.921875 207.246094 104.011719" fill="#ffffff"></path></svg>